<svg width="1920" height="509" viewBox="0 0 1920 509" fill="none" xmlns="http://www.w3.org/2000/svg">
<rect width="1920" height="509" fill="#958472"/>
<g opacity="0.5">
<g opacity="0.5">
<path d="M1724.5 426.182C1724.5 427.894 1725.05 430.965 1729.36 430.965C1733.68 430.965 1735.34 427.925 1735.34 426.182C1735.34 424.439 1733.64 421.765 1729.36 421.765C1725.08 421.765 1724.51 424.703 1724.51 426.182L1724.5 426.182ZM1729.92 416.779C1729.92 418.491 1730.46 421.562 1734.78 421.562C1739.09 421.562 1740.75 418.522 1740.75 416.779C1740.75 415.036 1739.06 412.362 1734.78 412.362C1730.5 412.362 1729.92 415.301 1729.92 416.779ZM1729.36 442.312C1725.05 442.312 1724.51 439.241 1724.51 437.529C1724.51 436.051 1725.08 433.112 1729.36 433.112C1733.64 433.112 1735.34 435.786 1735.34 437.529C1735.34 439.272 1733.68 442.312 1729.36 442.312ZM1729.92 446.729C1729.92 448.441 1730.46 451.512 1734.78 451.512C1739.09 451.512 1740.75 448.472 1740.75 446.729C1740.75 444.986 1739.06 442.312 1734.78 442.312C1730.5 442.312 1729.92 445.251 1729.92 446.729ZM1751.09 444.865C1743.33 444.865 1736.61 439.962 1736.61 431.937C1736.61 423.912 1743.16 419.09 1751.09 419.09C1757.69 419.09 1757.69 426.771 1757.69 431.919L1757.69 431.937C1757.69 437.651 1757.48 444.865 1751.09 444.865ZM1761.92 447.904C1761.92 449.616 1762.46 452.687 1766.78 452.687C1771.09 452.687 1772.75 449.647 1772.75 447.904C1772.75 446.161 1771.06 443.487 1766.78 443.487C1762.49 443.487 1761.92 446.426 1761.92 447.904ZM1761.36 462.09C1757.04 462.09 1756.51 459.019 1756.51 457.307C1756.51 455.828 1757.08 452.89 1761.36 452.89C1765.64 452.89 1767.34 455.564 1767.34 457.307C1767.34 459.05 1765.68 462.09 1761.36 462.09ZM1756.51 468.654C1756.51 470.366 1757.04 473.437 1761.36 473.437C1765.68 473.437 1767.34 470.397 1767.34 468.654C1767.34 466.911 1765.64 464.237 1761.36 464.237C1757.08 464.237 1756.51 467.176 1756.51 468.654ZM1766.78 482.637C1762.46 482.637 1761.92 479.566 1761.92 477.854C1761.92 476.376 1762.49 473.437 1766.78 473.437C1771.06 473.437 1772.75 476.111 1772.75 477.854C1772.75 479.597 1771.09 482.637 1766.78 482.637ZM1768.6 463.062C1768.6 471.087 1775.33 475.99 1783.09 475.99C1789.48 475.99 1789.69 468.779 1789.69 463.062L1789.69 463.042C1789.69 457.896 1789.69 450.215 1783.09 450.215C1775.16 450.215 1768.6 455.04 1768.6 463.062Z" fill="#5F504D"/>
</g>
<g opacity="0.5">
<path d="M179.497 426.182C179.497 427.894 178.955 430.965 174.639 430.965C170.322 430.965 168.662 427.925 168.662 426.182C168.662 424.439 170.357 421.765 174.639 421.765C178.923 421.765 179.494 424.703 179.494 426.182L179.497 426.182ZM174.078 416.779C174.078 418.491 173.539 421.562 169.222 421.562C164.906 421.562 163.246 418.522 163.246 416.779C163.246 415.036 164.938 412.362 169.222 412.362C173.504 412.362 174.078 415.301 174.078 416.779ZM174.639 442.312C178.955 442.312 179.494 439.241 179.494 437.529C179.494 436.051 178.923 433.112 174.639 433.112C170.357 433.112 168.662 435.786 168.662 437.529C168.662 439.272 170.322 442.312 174.639 442.312ZM174.078 446.729C174.078 448.441 173.539 451.512 169.222 451.512C164.906 451.512 163.246 448.472 163.246 446.729C163.246 444.986 164.938 442.312 169.222 442.312C173.504 442.312 174.078 445.251 174.078 446.729ZM152.91 444.865C160.672 444.865 167.395 439.962 167.395 431.937C167.395 423.912 160.839 419.09 152.91 419.09C146.312 419.09 146.312 426.771 146.312 431.919L146.312 431.937C146.312 437.651 146.519 444.865 152.91 444.865ZM142.078 447.904C142.078 449.616 141.539 452.687 137.223 452.687C132.906 452.687 131.246 449.647 131.246 447.904C131.246 446.161 132.941 443.487 137.223 443.487C141.507 443.487 142.078 446.426 142.078 447.904ZM142.639 462.09C146.955 462.09 147.494 459.019 147.494 457.307C147.494 455.828 146.923 452.89 142.639 452.89C138.357 452.89 136.662 455.564 136.662 457.307C136.662 459.05 138.322 462.09 142.639 462.09ZM147.494 468.654C147.494 470.366 146.955 473.437 142.639 473.437C138.322 473.437 136.662 470.397 136.662 468.654C136.662 466.911 138.357 464.237 142.639 464.237C146.923 464.237 147.494 467.176 147.494 468.654ZM137.223 482.637C141.539 482.637 142.078 479.566 142.078 477.854C142.078 476.376 141.507 473.437 137.223 473.437C132.941 473.437 131.246 476.111 131.246 477.854C131.246 479.597 132.906 482.637 137.223 482.637ZM135.395 463.062C135.395 471.087 128.675 475.99 120.911 475.99C114.52 475.99 114.312 468.779 114.312 463.062L114.312 463.042C114.312 457.896 114.312 450.215 120.911 450.215C128.839 450.215 135.395 455.04 135.395 463.062Z" fill="#5F504D"/>
</g>
<g opacity="0.5" clip-path="url(#clip0_31_2213)">
<path d="M1123.87 130.836C1125 131.952 1127.39 133.609 1130.18 130.861C1132.97 128.114 1132.03 125.076 1130.88 123.94C1129.72 122.804 1126.86 122.139 1124.09 124.865C1121.31 127.592 1122.89 129.871 1123.87 130.834L1123.87 130.836ZM1121.15 121.258C1122.28 122.374 1124.66 124.033 1127.46 121.285C1130.25 118.538 1129.31 115.5 1128.15 114.364C1127 113.228 1124.13 112.562 1121.36 115.289C1118.59 118.014 1120.17 120.295 1121.15 121.258ZM1137.7 138.258C1134.91 141.005 1132.52 139.347 1131.39 138.231C1130.41 137.267 1128.83 134.988 1131.6 132.261C1134.37 129.536 1137.24 130.2 1138.4 131.336C1139.55 132.473 1140.49 135.511 1137.7 138.258ZM1140.99 140.78C1142.12 141.896 1144.51 143.555 1147.3 140.808C1150.09 138.06 1149.15 135.022 1147.99 133.886C1146.84 132.75 1143.97 132.084 1141.2 134.811C1138.43 137.536 1140.01 139.817 1140.99 140.78ZM1153.45 126.092C1148.42 131.032 1140.83 132.116 1135.51 126.885C1130.19 121.654 1131.24 114.338 1136.37 109.292C1140.64 105.092 1145.73 110.098 1149.14 113.454L1149.15 113.466C1152.94 117.191 1157.58 122.024 1153.45 126.092ZM1162.47 121.179C1163.6 122.295 1165.98 123.953 1168.78 121.206C1171.57 118.459 1170.63 115.421 1169.47 114.284C1168.32 113.148 1165.45 112.484 1162.68 115.209C1159.91 117.936 1161.49 120.215 1162.47 121.179ZM1171.5 130.782C1168.71 133.529 1166.33 131.871 1165.19 130.755C1164.21 129.791 1162.64 127.512 1165.41 124.785C1168.18 122.06 1171.04 122.724 1172.2 123.86C1173.35 124.996 1174.29 128.035 1171.5 130.782ZM1172.71 138.151C1173.84 139.267 1176.23 140.926 1179.02 138.179C1181.81 135.431 1180.87 132.393 1179.72 131.257C1178.56 130.121 1175.69 129.456 1172.92 132.182C1170.15 134.909 1171.73 137.188 1172.71 138.151ZM1188.62 140.728C1185.83 143.475 1183.44 141.817 1182.31 140.701C1181.33 139.737 1179.75 137.458 1182.52 134.731C1185.29 132.006 1188.16 132.67 1189.32 133.806C1190.47 134.943 1191.41 137.981 1188.62 140.728ZM1176.83 126.805C1182.15 132.036 1189.74 130.954 1194.77 126.013C1198.9 121.945 1194.26 117.113 1190.47 113.387L1190.46 113.373C1187.05 110.019 1181.96 105.013 1177.69 109.212C1172.56 114.259 1171.52 121.576 1176.83 126.805Z" fill="#5F504D"/>
</g>
<g opacity="0.5">
<path d="M1581.97 252.993C1581.97 254.52 1582.45 257.258 1586.31 257.258C1590.17 257.258 1591.66 254.547 1591.66 252.993C1591.66 251.439 1590.14 249.055 1586.31 249.055C1582.48 249.055 1581.97 251.675 1581.97 252.993L1581.97 252.993ZM1586.81 244.611C1586.81 246.137 1587.29 248.875 1591.15 248.875C1595.01 248.875 1596.5 246.165 1596.5 244.611C1596.5 243.057 1594.98 240.672 1591.15 240.672C1587.33 240.672 1586.81 243.292 1586.81 244.611ZM1586.31 267.375C1582.45 267.375 1581.97 264.637 1581.97 263.111C1581.97 261.792 1582.48 259.172 1586.31 259.172C1590.14 259.172 1591.66 261.557 1591.66 263.111C1591.66 264.665 1590.17 267.375 1586.31 267.375ZM1586.81 271.313C1586.81 272.839 1587.29 275.577 1591.15 275.577C1595.01 275.577 1596.5 272.867 1596.5 271.313C1596.5 269.759 1594.98 267.375 1591.15 267.375C1587.33 267.375 1586.81 269.995 1586.81 271.313ZM1605.74 269.65C1598.8 269.65 1592.79 265.28 1592.79 258.125C1592.79 250.97 1598.65 246.671 1605.74 246.671C1611.64 246.671 1611.64 253.518 1611.64 258.109L1611.64 258.125C1611.64 263.219 1611.45 269.65 1605.74 269.65ZM1615.42 272.361C1615.42 273.887 1615.91 276.625 1619.77 276.625C1623.63 276.625 1625.11 273.915 1625.11 272.361C1625.11 270.807 1623.59 268.422 1619.77 268.422C1615.93 268.422 1615.42 271.042 1615.42 272.361ZM1614.92 285.008C1611.06 285.008 1610.58 282.27 1610.58 280.743C1610.58 279.425 1611.09 276.805 1614.92 276.805C1618.75 276.805 1620.27 279.189 1620.27 280.743C1620.27 282.297 1618.78 285.008 1614.92 285.008ZM1610.58 290.861C1610.58 292.387 1611.06 295.125 1614.92 295.125C1618.78 295.125 1620.27 292.415 1620.27 290.861C1620.27 289.307 1618.75 286.922 1614.92 286.922C1611.09 286.922 1610.58 289.542 1610.58 290.861ZM1619.77 303.327C1615.91 303.327 1615.42 300.589 1615.42 299.063C1615.42 297.745 1615.93 295.125 1619.77 295.125C1623.59 295.125 1625.11 297.509 1625.11 299.063C1625.11 300.617 1623.63 303.327 1619.77 303.327ZM1621.4 285.875C1621.4 293.03 1627.41 297.4 1634.35 297.4C1640.06 297.4 1640.25 290.972 1640.25 285.875L1640.25 285.856C1640.25 281.268 1640.25 274.421 1634.35 274.421C1627.26 274.421 1621.4 278.722 1621.4 285.875Z" fill="#5F504D"/>
</g>
<g opacity="0.5">
<path d="M221.326 250.668C221.326 252.421 220.778 255.566 216.411 255.566C212.044 255.566 210.364 252.453 210.364 250.668C210.364 248.883 212.079 246.145 216.411 246.145C220.746 246.145 221.324 249.154 221.324 250.668L221.326 250.668ZM215.844 241.039C215.844 242.792 215.298 245.937 210.931 245.937C206.564 245.937 204.884 242.824 204.884 241.039C204.884 239.254 206.596 236.516 210.931 236.516C215.263 236.516 215.844 239.525 215.844 241.039ZM216.411 267.187C220.778 267.187 221.324 264.042 221.324 262.289C221.324 260.775 220.746 257.766 216.411 257.766C212.079 257.766 210.364 260.504 210.364 262.289C210.364 264.074 212.044 267.187 216.411 267.187ZM215.844 271.711C215.844 273.464 215.298 276.609 210.931 276.609C206.564 276.609 204.884 273.496 204.884 271.711C204.884 269.926 206.596 267.187 210.931 267.187C215.263 267.187 215.844 270.197 215.844 271.711ZM194.427 269.801C202.28 269.801 209.082 264.781 209.082 256.562C209.082 248.344 202.449 243.406 194.427 243.406C187.751 243.406 187.751 251.271 187.751 256.544L187.751 256.562C187.751 262.414 187.961 269.801 194.427 269.801ZM183.467 272.914C183.467 274.667 182.922 277.812 178.555 277.812C174.188 277.812 172.508 274.699 172.508 272.914C172.508 271.129 174.222 268.391 178.555 268.391C182.89 268.391 183.467 271.4 183.467 272.914ZM184.035 287.441C188.402 287.441 188.947 284.296 188.947 282.543C188.947 281.029 188.369 278.02 184.035 278.02C179.702 278.02 177.988 280.758 177.988 282.543C177.988 284.328 179.667 287.441 184.035 287.441ZM188.947 294.164C188.947 295.917 188.402 299.062 184.035 299.062C179.667 299.062 177.988 295.949 177.988 294.164C177.988 292.379 179.702 289.641 184.035 289.641C188.369 289.641 188.947 292.65 188.947 294.164ZM178.555 308.484C182.922 308.484 183.467 305.339 183.467 303.586C183.467 302.072 182.89 299.062 178.555 299.062C174.222 299.062 172.508 301.801 172.508 303.586C172.508 305.371 174.188 308.484 178.555 308.484ZM176.706 288.437C176.706 296.656 169.906 301.676 162.051 301.676C155.585 301.676 155.375 294.292 155.375 288.437L155.375 288.416C155.375 283.146 155.375 275.281 162.051 275.281C170.073 275.281 176.706 280.222 176.706 288.437Z" fill="#5F504D"/>
</g>
<g opacity="0.5" clip-path="url(#clip1_31_2213)">
<path d="M1735.18 111.688C1734.32 112.894 1733.15 115.32 1736.17 117.405C1739.19 119.491 1741.88 118.151 1742.75 116.922C1743.63 115.694 1743.79 112.991 1740.8 110.922C1737.8 108.853 1735.92 110.647 1735.18 111.689L1735.18 111.688ZM1743.69 107.68C1742.83 108.887 1741.67 111.311 1744.69 113.396C1747.7 115.482 1750.39 114.142 1751.27 112.913C1752.15 111.685 1752.31 108.983 1749.31 106.913C1746.32 104.845 1744.44 106.638 1743.69 107.68ZM1730.46 125.402C1727.45 123.317 1728.61 120.892 1729.47 119.686C1730.22 118.644 1732.09 116.849 1735.09 118.919C1738.08 120.987 1737.92 123.691 1737.05 124.919C1736.17 126.147 1733.48 127.487 1730.46 125.402ZM1728.63 128.785C1727.77 129.992 1726.61 132.416 1729.63 134.501C1732.64 136.587 1735.33 135.247 1736.21 134.018C1737.09 132.79 1737.25 130.088 1734.25 128.018C1731.26 125.95 1729.38 127.743 1728.63 128.785ZM1744.38 137.697C1738.95 133.948 1736.71 127.245 1740.75 121.59C1744.78 115.935 1751.79 115.704 1757.34 119.535C1761.95 122.723 1758.09 128.135 1755.5 131.763L1755.49 131.775C1752.62 135.802 1748.85 140.785 1744.38 137.697ZM1750.42 145.073C1749.56 146.279 1748.39 148.704 1751.41 150.789C1754.43 152.874 1757.12 151.534 1758 150.306C1758.87 149.078 1759.03 146.374 1756.04 144.306C1753.04 142.236 1751.17 144.031 1750.42 145.073ZM1742.9 154.798C1739.88 152.713 1741.05 150.288 1741.91 149.082C1742.65 148.04 1744.53 146.245 1747.52 148.315C1750.52 150.383 1750.36 153.087 1749.48 154.315C1748.61 155.543 1745.92 156.883 1742.9 154.798ZM1736.2 157.078C1735.34 158.284 1734.17 160.709 1737.19 162.794C1740.21 164.88 1742.9 163.539 1743.78 162.311C1744.65 161.083 1744.81 158.38 1741.82 156.311C1738.82 154.241 1736.94 156.036 1736.2 157.078ZM1736.35 171.894C1733.33 169.809 1734.5 167.384 1735.36 166.178C1736.11 165.136 1737.98 163.341 1740.98 165.411C1743.97 167.479 1743.81 170.183 1742.94 171.411C1742.06 172.639 1739.37 173.979 1736.35 171.894ZM1747.47 158.983C1743.44 164.638 1745.67 171.339 1751.1 175.09C1755.57 178.177 1759.34 173.196 1762.22 169.168L1762.23 169.153C1764.82 165.527 1768.68 160.115 1764.06 156.927C1758.52 153.097 1751.51 153.329 1747.47 158.983Z" fill="#5F504D"/>
</g>
<g opacity="0.5" clip-path="url(#clip2_31_2213)">
<path d="M307.285 108.144C308.253 109.5 309.563 112.227 306.169 114.571C302.776 116.915 299.752 115.409 298.767 114.028C297.782 112.647 297.602 109.608 300.969 107.283C304.337 104.956 306.447 106.974 307.283 108.145L307.285 108.144ZM297.71 103.638C298.678 104.994 299.99 107.72 296.596 110.064C293.203 112.408 290.179 110.902 289.194 109.521C288.209 108.14 288.027 105.103 291.396 102.776C294.762 100.451 296.874 102.467 297.71 103.638ZM312.584 123.56C315.977 121.216 314.665 118.49 313.697 117.134C312.862 115.963 310.752 113.945 307.383 116.272C304.017 118.598 304.196 121.636 305.181 123.017C306.167 124.398 309.19 125.904 312.584 123.56ZM314.64 127.364C315.608 128.72 316.92 131.445 313.526 133.789C310.133 136.134 307.109 134.627 306.124 133.246C305.139 131.866 304.957 128.828 308.326 126.501C311.692 124.176 313.804 126.192 314.64 127.364ZM296.944 137.382C303.046 133.167 305.561 125.632 301.024 119.275C296.488 112.918 288.608 112.659 282.375 116.965C277.188 120.548 281.529 126.632 284.439 130.711L284.45 130.725C287.68 135.251 291.92 140.853 296.944 137.382ZM290.147 145.673C291.114 147.029 292.426 149.755 289.033 152.099C285.639 154.443 282.616 152.936 281.631 151.556C280.645 150.175 280.466 147.136 283.832 144.811C287.201 142.484 289.311 144.502 290.147 145.673ZM298.606 156.606C301.999 154.261 300.687 151.536 299.719 150.18C298.884 149.009 296.774 146.991 293.405 149.318C290.039 151.643 290.218 154.682 291.203 156.062C292.189 157.443 295.212 158.95 298.606 156.606ZM306.134 159.169C307.102 160.525 308.414 163.251 305.02 165.595C301.627 167.939 298.603 166.432 297.618 165.052C296.633 163.671 296.453 160.632 299.82 158.307C303.188 155.98 305.298 157.998 306.134 159.169ZM305.963 175.824C309.356 173.48 308.044 170.754 307.076 169.398C306.241 168.227 304.131 166.209 300.762 168.536C297.396 170.862 297.575 173.9 298.56 175.281C299.546 176.662 302.569 178.168 305.963 175.824ZM293.461 161.31C297.997 167.667 295.485 175.2 289.381 179.417C284.356 182.888 280.118 177.288 276.886 172.76L276.874 172.743C273.965 168.667 269.624 162.583 274.811 158.999C281.045 154.693 288.926 154.955 293.461 161.31Z" fill="#5F504D"/>
</g>
<g opacity="0.5" clip-path="url(#clip3_31_2213)">
<path d="M784.993 145.235C783.861 146.349 781.479 148.003 778.691 145.26C775.903 142.517 776.842 139.483 777.995 138.349C779.148 137.214 782.011 136.551 784.777 139.272C787.544 141.995 785.969 144.271 784.991 145.233L784.993 145.235ZM787.713 135.671C786.58 136.785 784.2 138.442 781.412 135.698C778.624 132.955 779.563 129.922 780.716 128.787C781.869 127.653 784.731 126.988 787.498 129.711C790.264 132.432 788.69 134.709 787.713 135.671ZM771.185 152.645C773.973 155.389 776.353 153.733 777.485 152.618C778.463 151.656 780.038 149.381 777.271 146.658C774.505 143.936 771.641 144.6 770.488 145.734C769.335 146.869 768.397 149.902 771.185 152.645ZM767.901 155.164C766.768 156.278 764.389 157.934 761.601 155.191C758.813 152.448 759.751 149.414 760.904 148.28C762.057 147.146 764.919 146.48 767.686 149.203C770.452 151.925 768.879 154.202 767.901 155.164ZM755.462 140.498C760.475 145.43 768.06 146.512 773.369 141.289C778.677 136.066 777.633 128.762 772.511 123.723C768.249 119.529 763.169 124.528 759.763 127.879L759.751 127.891C755.971 131.61 751.334 136.436 755.462 140.498ZM746.454 135.592C745.322 136.706 742.942 138.362 740.154 135.619C737.366 132.876 738.304 129.842 739.457 128.708C740.61 127.573 743.474 126.91 746.24 129.631C749.007 132.354 747.432 134.63 746.454 135.592ZM737.433 145.181C740.221 147.924 742.601 146.268 743.733 145.154C744.711 144.191 746.286 141.916 743.518 139.193C740.753 136.472 737.889 137.135 736.736 138.269C735.583 139.404 734.645 142.437 737.433 145.181ZM736.227 152.539C735.094 153.653 732.714 155.309 729.926 152.566C727.138 149.823 728.077 146.789 729.23 145.655C730.383 144.52 733.246 143.857 736.012 146.578C738.78 149.301 737.205 151.577 736.227 152.539ZM720.342 155.112C723.13 157.855 725.51 156.199 726.642 155.085C727.62 154.123 729.195 151.847 726.428 149.124C723.662 146.403 720.799 147.066 719.646 148.201C718.493 149.335 717.554 152.369 720.342 155.112ZM732.111 141.21C726.802 146.433 719.218 145.353 714.203 140.418C710.075 136.357 714.711 131.532 718.493 127.811L718.506 127.798C721.91 124.449 726.991 119.45 731.253 123.643C736.374 128.682 737.417 135.989 732.111 141.21Z" fill="#5F504D"/>
</g>
<g opacity="0.5" clip-path="url(#clip4_31_2213)">
<path d="M973.06 157.253C972.522 155.793 971.977 153.025 975.321 151.833C978.664 150.641 980.904 152.775 981.452 154.262C981.999 155.748 981.526 158.496 978.21 159.679C974.891 160.862 973.526 158.513 973.062 157.252L973.06 157.253ZM980.209 163.775C979.671 162.315 979.125 159.548 982.468 158.356C985.811 157.164 988.052 159.298 988.599 160.784C989.146 162.271 988.676 165.018 985.357 166.201C982.04 167.384 980.673 165.036 980.209 163.775ZM971.757 142.156C968.414 143.348 968.961 146.116 969.498 147.576C969.963 148.836 971.328 151.185 974.646 150.002C977.963 148.82 978.436 146.071 977.888 144.585C977.341 143.098 975.101 140.964 971.757 142.156ZM970.805 138.235C970.267 136.775 969.72 134.007 973.064 132.815C976.407 131.624 978.647 133.758 979.195 135.244C979.742 136.73 979.271 139.478 975.953 140.661C972.636 141.843 971.269 139.495 970.805 138.235ZM987.786 133.981C981.774 136.124 978.106 142.16 980.626 149.004C983.146 155.847 989.737 158.149 995.879 155.96C1000.99 154.138 998.578 147.589 996.961 143.198L996.955 143.183C995.161 138.31 992.736 132.216 987.786 133.981ZM995.221 128.398C994.684 126.938 994.137 124.17 997.48 122.978C1000.82 121.787 1003.06 123.921 1003.61 125.407C1004.16 126.893 1003.69 129.642 1000.37 130.824C997.05 132.007 995.685 129.658 995.221 128.398ZM990.333 116.456C986.99 117.647 987.536 120.415 988.074 121.875C988.538 123.136 989.903 125.484 993.222 124.301C996.538 123.119 997.011 120.371 996.464 118.884C995.916 117.398 993.676 115.264 990.333 116.456ZM984.51 112.198C983.973 110.738 983.426 107.97 986.77 106.779C990.113 105.587 992.353 107.721 992.901 109.207C993.448 110.694 992.975 113.442 989.658 114.624C986.34 115.807 984.975 113.459 984.51 112.198ZM988.076 97.4378C984.732 98.6296 985.279 101.397 985.817 102.857C986.281 104.118 987.646 106.466 990.965 105.283C994.281 104.101 994.754 101.353 994.207 99.8664C993.659 98.38 991.419 96.2461 988.076 97.4378ZM995.638 113.626C993.118 106.783 996.784 100.747 1002.8 98.6032C1007.75 96.8386 1010.17 102.93 1011.97 107.805L1011.97 107.823C1013.59 112.211 1016 118.761 1010.89 120.583C1004.75 122.772 998.157 120.468 995.638 113.626Z" fill="#5F504D"/>
</g>
<g opacity="0.5" clip-path="url(#clip5_31_2213)">
<path d="M1544.82 91.3561C1545.46 90.0127 1547.03 87.7972 1550.39 89.3455C1553.76 90.8938 1553.91 93.8748 1553.26 95.2426C1552.61 96.6104 1550.29 98.101 1546.96 96.565C1543.62 95.0282 1544.27 92.5172 1544.83 91.3571L1544.82 91.3561ZM1545.53 100.678C1546.17 99.3348 1547.74 97.1183 1551.1 98.6666C1554.46 100.215 1554.62 103.196 1553.97 104.564C1553.32 105.931 1551 107.423 1547.67 105.886C1544.33 104.35 1544.98 101.838 1545.53 100.678ZM1554.63 80.4407C1551.27 78.8924 1549.7 81.1088 1549.06 82.4522C1548.51 83.6124 1547.86 86.1233 1551.2 87.6602C1554.53 89.1961 1556.85 87.7055 1557.5 86.3377C1558.15 84.9699 1557.99 81.989 1554.63 80.4407ZM1556.72 77.1754C1557.36 75.8321 1558.92 73.6156 1562.28 75.1639C1565.65 76.7122 1565.8 79.6932 1565.15 81.0609C1564.5 82.4287 1562.19 83.9203 1558.85 82.3834C1555.51 80.8475 1556.16 78.3356 1556.72 77.1754ZM1572.51 86.2317C1566.46 83.4476 1559.39 84.883 1556.4 91.1805C1553.4 97.478 1556.71 103.613 1562.88 106.457C1568.02 108.824 1570.89 102.797 1572.81 98.7571L1572.82 98.7429C1574.95 94.2589 1577.48 88.5242 1572.51 86.2317ZM1582.08 87.7318C1582.72 86.3884 1584.28 84.1719 1587.64 85.7202C1591.01 87.2685 1591.16 90.2495 1590.51 91.6173C1589.86 92.9851 1587.54 94.4757 1584.21 92.9397C1580.87 91.4029 1581.52 88.8919 1582.08 87.7318ZM1586.94 76.3991C1583.57 74.8508 1582.01 77.0673 1581.37 78.4107C1580.82 79.5709 1580.16 82.0818 1583.5 83.6187C1586.84 85.1546 1589.15 83.664 1589.8 82.2962C1590.46 80.9284 1590.3 77.9474 1586.94 76.3991ZM1585.61 69.5058C1586.24 68.1625 1587.81 65.946 1591.17 67.4943C1594.53 69.0426 1594.69 72.0236 1594.04 73.3914C1593.39 74.7591 1591.07 76.2497 1587.74 74.7138C1584.4 73.177 1585.05 70.666 1585.61 69.5058ZM1598.83 62.2175C1595.46 60.6692 1593.9 62.8857 1593.26 64.2291C1592.71 65.3892 1592.05 67.9002 1595.39 69.4371C1598.73 70.973 1601.04 69.4824 1601.69 68.1146C1602.35 66.7468 1602.19 63.7658 1598.83 62.2175ZM1592.94 78.2342C1595.94 71.9366 1603 70.5003 1609.05 73.2854C1614.02 75.5778 1611.49 81.3105 1609.36 85.7965L1609.35 85.8128C1607.43 89.851 1604.56 95.8778 1599.42 93.5111C1593.25 90.667 1589.95 84.5296 1592.94 78.2342Z" fill="#5F504D"/>
</g>
<g opacity="0.5">
<path d="M561.342 151.865C561.872 150.426 562.371 147.684 558.77 146.4C555.17 145.117 552.844 147.178 552.305 148.643C551.765 150.108 552.351 152.859 555.923 154.133C559.497 155.406 560.883 153.106 561.34 151.864L561.342 151.865ZM553.913 158.156C554.443 156.717 554.943 153.976 551.343 152.692C547.742 151.409 545.417 153.47 544.877 154.935C544.338 156.4 544.922 159.151 548.496 160.425C552.067 161.698 553.455 159.398 553.913 158.156ZM562.282 136.863C565.883 138.146 565.382 140.888 564.852 142.326C564.395 143.569 563.009 145.869 559.435 144.595C555.863 143.322 555.277 140.571 555.817 139.106C556.356 137.641 558.682 135.579 562.282 136.863ZM563.182 132.984C563.711 131.545 564.212 128.803 560.612 127.52C557.011 126.237 554.686 128.298 554.146 129.763C553.607 131.228 554.191 133.978 557.764 135.252C561.336 136.525 562.724 134.226 563.182 132.984ZM544.948 128.257C551.422 130.565 555.513 136.684 553.029 143.429C550.546 150.174 543.585 152.277 536.972 149.92C531.468 147.958 533.845 141.503 535.438 137.176L535.444 137.16C537.212 132.358 539.617 126.357 544.948 128.257ZM536.853 122.481C537.383 121.043 537.884 118.301 534.283 117.018C530.683 115.734 528.357 117.796 527.818 119.261C527.279 120.726 527.865 123.477 531.436 124.75C535.01 126.024 536.396 123.724 536.853 122.481ZM541.711 110.726C545.311 112.009 544.811 114.751 544.281 116.189C543.823 117.432 542.438 119.732 538.864 118.458C535.292 117.185 534.706 114.434 535.246 112.969C535.785 111.504 538.111 109.442 541.711 110.726ZM547.793 106.652C548.323 105.213 548.823 102.472 545.223 101.188C541.622 99.905 539.297 101.966 538.757 103.431C538.218 104.896 538.804 107.648 542.376 108.921C545.949 110.195 547.335 107.895 547.793 106.652ZM543.552 91.8456C547.153 93.129 546.652 95.8704 546.122 97.3092C545.665 98.5518 544.279 100.852 540.705 99.578C537.133 98.3048 536.548 95.5534 537.087 94.0885C537.626 92.6235 539.952 90.5622 543.552 91.8456ZM535.97 107.755C538.453 101.01 534.365 94.8913 527.889 92.5828C522.558 90.6826 520.154 96.6813 518.384 101.486L518.378 101.503C516.785 105.829 514.409 112.283 519.912 114.245C526.526 116.603 533.487 114.497 535.97 107.755Z" fill="#5F504D"/>
</g>
</g>
<defs>
<clipPath id="clip0_31_2213">
<rect width="77.139" height="77.139" fill="white" transform="matrix(0.712819 0.701348 0.712819 -0.701348 1101.12 126.912)"/>
</clipPath>
<clipPath id="clip1_31_2213">
<rect width="71.8522" height="72.2492" fill="white" transform="matrix(-0.580856 0.814006 0.822775 0.568368 1735.18 90.4595)"/>
</clipPath>
<clipPath id="clip2_31_2213">
<rect width="80.7727" height="81.2189" fill="white" transform="matrix(0.580856 0.814006 -0.822775 0.568368 307.279 84.2798)"/>
</clipPath>
<clipPath id="clip3_31_2213">
<rect width="77.0233" height="77.0232" fill="white" transform="matrix(-0.712819 0.701348 -0.712819 -0.701348 807.711 141.316)"/>
</clipPath>
<clipPath id="clip4_31_2213">
<rect width="75.4258" height="69.8945" fill="white" transform="matrix(-0.345537 -0.938405 0.941945 -0.335766 968.163 178.468)"/>
</clipPath>
<clipPath id="clip5_31_2213">
<rect width="72.1286" height="72.882" fill="white" transform="matrix(0.429625 -0.903007 0.90829 0.418342 1525.99 101.991)"/>
</clipPath>
</defs>
</svg>
