<svg width="1920" height="509" viewBox="0 0 1920 509" fill="none" xmlns="http://www.w3.org/2000/svg">
<rect width="1920" height="509" fill="#5F504D"/>
<g opacity="0.3">
<g clip-path="url(#clip0_31_2214)">
<path d="M649.594 116.143C646.311 104.967 634.59 98.5683 623.414 101.851C612.238 105.134 605.839 116.855 609.122 128.031C612.405 139.207 624.126 145.605 635.302 142.323C646.478 139.04 652.876 127.319 649.594 116.143ZM578.144 137.55C580.624 133.006 586.319 131.333 590.862 133.814L622.361 151.009L650.885 142.63L668.08 111.132C670.56 106.588 676.255 104.915 680.799 107.396C685.343 109.876 687.016 115.571 684.535 120.115L665.752 154.522L687.773 229.491C689.232 234.458 686.388 239.668 681.421 241.127L676.924 242.447C671.957 243.906 666.748 241.063 665.289 236.096L656.043 204.618L651.546 205.939L660.792 237.416C662.251 242.383 659.407 247.593 654.44 249.052L649.943 250.373C644.976 251.832 639.767 248.988 638.308 244.021L616.287 169.051L581.88 150.268C577.336 147.788 575.663 142.094 578.144 137.55Z" fill="#958472"/>
</g>
<g clip-path="url(#clip1_31_2214)">
<path d="M206.015 259.67C204.131 256.82 204.915 252.981 207.766 251.097C210.617 249.213 214.455 249.996 216.339 252.847C218.224 255.698 217.44 259.537 214.589 261.421C211.738 263.305 207.9 262.521 206.015 259.67ZM224.336 247.704C222.848 247.4 221.395 248.36 221.091 249.848L218.985 260.164L211.709 264.973L201.394 262.866C199.906 262.563 198.453 263.523 198.149 265.011C197.845 266.499 198.805 267.951 200.293 268.255L211.561 270.556L224.2 289.68C225.038 290.947 226.744 291.295 228.011 290.458L229.158 289.7C230.425 288.863 230.773 287.157 229.936 285.889L224.629 277.86L225.776 277.102L231.083 285.131C231.92 286.398 233.626 286.747 234.894 285.909L236.041 285.151C237.308 284.314 237.656 282.608 236.819 281.341L224.18 262.216L226.48 250.948C226.784 249.46 225.824 248.008 224.336 247.704Z" fill="#958472"/>
</g>
<g clip-path="url(#clip2_31_2214)">
<path d="M1735 259.67C1736.89 256.82 1736.1 252.981 1733.25 251.097C1730.4 249.213 1726.56 249.996 1724.68 252.847C1722.79 255.698 1723.58 259.537 1726.43 261.421C1729.28 263.305 1733.12 262.521 1735 259.67ZM1716.68 247.704C1718.17 247.4 1719.62 248.36 1719.92 249.848L1722.03 260.164L1729.31 264.973L1739.62 262.866C1741.11 262.563 1742.56 263.523 1742.87 265.011C1743.17 266.499 1742.21 267.951 1740.72 268.255L1729.46 270.556L1716.82 289.68C1715.98 290.947 1714.27 291.295 1713.01 290.458L1711.86 289.7C1710.59 288.863 1710.24 287.157 1711.08 285.889L1716.39 277.86L1715.24 277.102L1709.93 285.131C1709.1 286.398 1707.39 286.747 1706.12 285.909L1704.98 285.151C1703.71 284.314 1703.36 282.608 1704.2 281.341L1716.84 262.216L1714.54 250.948C1714.23 249.46 1715.19 248.008 1716.68 247.704Z" fill="#958472"/>
</g>
<g clip-path="url(#clip3_31_2214)">
<path d="M295.298 172.534C296.139 169.222 299.505 167.218 302.818 168.059C306.13 168.9 308.133 172.266 307.293 175.579C306.452 178.891 303.086 180.894 299.773 180.054C296.461 179.213 294.457 175.846 295.298 172.534ZM316.479 178.032C315.702 176.727 314.014 176.298 312.709 177.075L303.662 182.459L295.208 180.314L289.824 171.267C289.047 169.961 287.359 169.533 286.054 170.31C284.749 171.087 284.321 172.774 285.097 174.079L290.979 183.962L285.34 206.181C284.966 207.653 285.857 209.149 287.329 209.523L288.662 209.861C290.134 210.235 291.63 209.344 292.004 207.872L294.371 198.543L295.704 198.881L293.336 208.211C292.963 209.683 293.853 211.179 295.325 211.553L296.658 211.891C298.13 212.264 299.626 211.374 300 209.902L305.639 187.683L315.522 181.801C316.827 181.024 317.255 179.337 316.479 178.032Z" fill="#958472"/>
</g>
<g clip-path="url(#clip4_31_2214)">
<path d="M1645.72 172.534C1644.88 169.222 1641.51 167.218 1638.2 168.059C1634.89 168.9 1632.88 172.266 1633.72 175.579C1634.56 178.891 1637.93 180.894 1641.24 180.054C1644.56 179.213 1646.56 175.846 1645.72 172.534ZM1624.54 178.032C1625.31 176.727 1627 176.298 1628.31 177.075L1637.35 182.459L1645.81 180.314L1651.19 171.267C1651.97 169.961 1653.66 169.533 1654.96 170.31C1656.27 171.087 1656.7 172.774 1655.92 174.079L1650.04 183.962L1655.68 206.181C1656.05 207.653 1655.16 209.149 1653.69 209.523L1652.35 209.861C1650.88 210.235 1649.39 209.344 1649.01 207.872L1646.64 198.543L1645.31 198.881L1647.68 208.211C1648.05 209.683 1647.16 211.179 1645.69 211.553L1644.36 211.891C1642.89 212.264 1641.39 211.374 1641.02 209.902L1635.38 187.683L1625.49 181.801C1624.19 181.024 1623.76 179.337 1624.54 178.032Z" fill="#958472"/>
</g>
<g clip-path="url(#clip5_31_2214)">
<path d="M1243.32 93.8644C1241.42 91.0193 1237.58 90.2475 1234.74 92.1405C1231.89 94.0334 1231.12 97.8743 1233.01 100.719C1234.91 103.564 1238.75 104.336 1241.59 102.443C1244.44 100.55 1245.21 96.7094 1243.32 93.8644ZM1225.16 106.084C1225.46 104.595 1226.91 103.63 1228.4 103.93L1238.72 106.004L1245.98 101.172L1248.06 90.8506C1248.36 89.3616 1249.81 88.3971 1251.3 88.6964C1252.79 88.9956 1253.75 90.4452 1253.45 91.9343L1251.18 103.209L1263.88 122.294C1264.72 123.559 1264.38 125.266 1263.12 126.107L1261.97 126.869C1260.71 127.71 1259 127.367 1258.16 126.103L1252.83 118.089L1251.68 118.851L1257.01 126.864C1257.86 128.129 1257.51 129.836 1256.25 130.677L1255.1 131.439C1253.84 132.28 1252.13 131.937 1251.29 130.673L1238.59 111.587L1227.32 109.322C1225.83 109.023 1224.86 107.573 1225.16 106.084Z" fill="#958472"/>
</g>
<g clip-path="url(#clip6_31_2214)">
<path d="M856.316 93.8644C854.423 91.0193 850.582 90.2475 847.737 92.1405C844.892 94.0334 844.12 97.8743 846.013 100.719C847.906 103.564 851.747 104.336 854.592 102.443C857.437 100.55 858.209 96.7094 856.316 93.8644ZM838.163 106.084C838.462 104.595 839.912 103.63 841.401 103.93L851.723 106.004L858.984 101.172L861.058 90.8506C861.357 89.3616 862.807 88.3971 864.296 88.6964C865.785 88.9956 866.75 90.4452 866.45 91.9343L864.185 103.209L876.883 122.294C877.724 123.559 877.381 125.266 876.117 126.107L874.972 126.869C873.707 127.71 872 127.367 871.159 126.103L865.827 118.089L864.683 118.851L870.014 126.864C870.856 128.129 870.513 129.836 869.248 130.677L868.103 131.439C866.839 132.28 865.132 131.937 864.29 130.673L851.592 111.587L840.317 109.322C838.828 109.023 837.864 107.573 838.163 106.084Z" fill="#958472"/>
</g>
<g clip-path="url(#clip7_31_2214)">
<path d="M71.0154 70.6705C69.1312 67.8195 69.9149 63.9811 72.7659 62.0969C75.6168 60.2127 79.4553 60.9964 81.3394 63.8474C83.2236 66.6982 82.4399 70.5368 79.589 72.4209C76.738 74.3051 72.8995 73.5213 71.0154 70.6705ZM89.3359 58.704C87.8478 58.4001 86.3952 59.3602 86.0914 60.8483L83.9852 71.1636L76.7089 75.9725L66.3935 73.8664C64.9055 73.5626 63.4528 74.5226 63.1491 76.0107C62.8452 77.4988 63.8053 78.9514 65.2934 79.2552L76.5613 81.5558L89.2004 100.68C90.0378 101.947 91.7438 102.295 93.0109 101.458L94.158 100.7C95.425 99.8625 95.7734 98.1565 94.936 96.8894L89.6291 88.8596L90.7762 88.1015L96.0831 96.1313C96.9205 97.3984 98.6265 97.7467 99.8936 96.9093L101.041 96.1512C102.308 95.3138 102.656 93.6078 101.819 92.3407L89.1795 73.2164L91.4801 61.9485C91.784 60.4604 90.824 59.0078 89.3359 58.704Z" fill="#958472"/>
</g>
<g clip-path="url(#clip8_31_2214)">
<path d="M1870 70.6705C1871.89 67.8195 1871.1 63.9811 1868.25 62.0969C1865.4 60.2127 1861.56 60.9964 1859.68 63.8474C1857.79 66.6982 1858.58 70.5368 1861.43 72.4209C1864.28 74.3051 1868.12 73.5213 1870 70.6705ZM1851.68 58.704C1853.17 58.4001 1854.62 59.3602 1854.92 60.8483L1857.03 71.1636L1864.31 75.9725L1874.62 73.8664C1876.11 73.5626 1877.56 74.5226 1877.87 76.0107C1878.17 77.4988 1877.21 78.9514 1875.72 79.2552L1864.46 81.5558L1851.82 100.68C1850.98 101.947 1849.27 102.295 1848.01 101.458L1846.86 100.7C1845.59 99.8625 1845.24 98.1565 1846.08 96.8894L1851.39 88.8596L1850.24 88.1015L1844.93 96.1313C1844.1 97.3984 1842.39 97.7467 1841.12 96.9093L1839.98 96.1512C1838.71 95.3138 1838.36 93.6078 1839.2 92.3407L1851.84 73.2164L1849.54 61.9485C1849.23 60.4604 1850.19 59.0078 1851.68 58.704Z" fill="#958472"/>
</g>
<g clip-path="url(#clip9_31_2214)">
<path d="M1545 59.0007C1548.04 57.4349 1549.24 53.7034 1547.67 50.6659C1546.1 47.6283 1542.37 46.4353 1539.33 48.001C1536.3 49.5667 1535.1 53.2983 1536.67 56.3358C1538.24 59.3733 1541.97 60.5663 1545 59.0007ZM1534.87 39.6047C1536.32 40.0671 1537.12 41.6149 1536.66 43.0615L1533.45 53.0896L1537.45 60.8421L1547.47 64.0483C1548.92 64.5108 1549.72 66.0585 1549.26 67.5051C1548.79 68.9518 1547.25 69.7496 1545.8 69.287L1534.84 65.7847L1514.47 76.2877C1513.12 76.9836 1511.46 76.4533 1510.76 75.1033L1510.13 73.8811C1509.44 72.5312 1509.97 70.8726 1511.32 70.1768L1519.87 65.7668L1519.24 64.5446L1510.69 68.9546C1509.34 69.6505 1507.68 69.1202 1506.98 67.7702L1506.35 66.548C1505.66 65.1981 1506.19 63.5395 1507.54 62.8437L1527.91 52.3406L1531.42 41.3865C1531.88 39.9399 1533.43 39.1421 1534.87 39.6047Z" fill="#958472"/>
</g>
<g clip-path="url(#clip10_31_2214)">
<path d="M1158 59.0007C1161.04 57.4349 1162.24 53.7034 1160.67 50.6659C1159.1 47.6283 1155.37 46.4353 1152.33 48.001C1149.3 49.5667 1148.1 53.2983 1149.67 56.3358C1151.24 59.3733 1154.97 60.5663 1158 59.0007ZM1147.87 39.6047C1149.32 40.0671 1150.12 41.6149 1149.66 43.0615L1146.45 53.0896L1150.45 60.8421L1160.47 64.0483C1161.92 64.5108 1162.72 66.0585 1162.26 67.5051C1161.79 68.9518 1160.25 69.7496 1158.8 69.287L1147.84 65.7847L1127.47 76.2877C1126.12 76.9836 1124.46 76.4533 1123.76 75.1033L1123.13 73.8811C1122.44 72.5312 1122.97 70.8726 1124.32 70.1768L1132.87 65.7668L1132.24 64.5446L1123.69 68.9546C1122.34 69.6505 1120.68 69.1202 1119.98 67.7702L1119.35 66.548C1118.66 65.1981 1119.19 63.5395 1120.54 62.8437L1140.91 52.3406L1144.42 41.3865C1144.88 39.9399 1146.43 39.1421 1147.87 39.6047Z" fill="#958472"/>
</g>
<g clip-path="url(#clip11_31_2214)">
<path d="M264.211 54.2623C264.946 50.9251 268.248 48.8161 271.585 49.5517C274.922 50.2873 277.031 53.5888 276.295 56.926C275.56 60.2631 272.258 62.3722 268.921 61.6366C265.584 60.901 263.475 57.5994 264.211 54.2623ZM285.554 59.0877C284.737 57.8077 283.036 57.4329 281.756 58.2506L272.884 63.9181L264.366 62.0406L258.699 53.1682C257.881 51.8882 256.181 51.5134 254.901 52.3311C253.621 53.1487 253.246 54.849 254.064 56.129L260.255 65.8207L255.32 88.2068C254.993 89.69 255.931 91.1574 257.414 91.4843L258.757 91.7803C260.24 92.1072 261.707 91.1699 262.034 89.6867L264.106 80.2874L265.449 80.5833L263.377 89.9827C263.05 91.4659 263.987 92.9333 265.471 93.2602L266.813 93.5562C268.297 93.8831 269.764 92.9457 270.091 91.4626L275.025 69.0765L284.717 62.8855C285.997 62.0679 286.372 60.3676 285.554 59.0877Z" fill="#958472"/>
</g>
<g clip-path="url(#clip12_31_2214)">
<path d="M1676.81 54.2623C1676.07 50.9251 1672.77 48.8161 1669.43 49.5517C1666.09 50.2873 1663.99 53.5888 1664.72 56.926C1665.46 60.2631 1668.76 62.3722 1672.1 61.6366C1675.43 60.901 1677.54 57.5994 1676.81 54.2623ZM1655.46 59.0877C1656.28 57.8077 1657.98 57.4329 1659.26 58.2506L1668.13 63.9181L1676.65 62.0406L1682.32 53.1682C1683.14 51.8882 1684.84 51.5134 1686.12 52.3311C1687.4 53.1487 1687.77 54.849 1686.95 56.129L1680.76 65.8207L1685.7 88.2068C1686.02 89.69 1685.09 91.1574 1683.6 91.4843L1682.26 91.7803C1680.78 92.1072 1679.31 91.1699 1678.98 89.6867L1676.91 80.2874L1675.57 80.5833L1677.64 89.9827C1677.97 91.4659 1677.03 92.9333 1675.55 93.2602L1674.2 93.5562C1672.72 93.8831 1671.25 92.9457 1670.93 91.4626L1665.99 69.0765L1656.3 62.8855C1655.02 62.0679 1654.64 60.3676 1655.46 59.0877Z" fill="#958472"/>
</g>
<g clip-path="url(#clip13_31_2214)">
<path d="M1358.67 38.4948C1359.66 35.224 1357.81 31.7701 1354.54 30.7801C1351.27 29.7902 1347.81 31.6391 1346.82 34.9099C1345.83 38.1805 1347.68 41.6345 1350.95 42.6245C1354.22 43.6145 1357.68 41.7655 1358.67 38.4948ZM1337.69 32.2687C1339.03 31.5519 1340.7 32.0563 1341.41 33.3953L1346.38 42.6772L1354.73 45.2039L1364.01 40.2352C1365.35 39.5184 1367.02 40.0228 1367.73 41.3618C1368.45 42.7009 1367.95 44.3674 1366.61 45.0842L1356.47 50.5116L1349.83 72.4521C1349.39 73.9058 1347.85 74.7275 1346.4 74.2876L1345.08 73.8892C1343.63 73.4493 1342.81 71.9142 1343.25 70.4605L1346.03 61.2482L1344.72 60.8499L1341.93 70.0622C1341.49 71.5158 1339.96 72.3376 1338.5 71.8976L1337.19 71.4993C1335.73 71.0593 1334.91 69.5242 1335.35 68.0706L1341.99 46.13L1336.56 35.9909C1335.85 34.6519 1336.35 32.9855 1337.69 32.2687Z" fill="#958472"/>
</g>
<g clip-path="url(#clip14_31_2214)">
<path d="M971.668 38.4948C972.658 35.224 970.809 31.7701 967.538 30.7801C964.268 29.7902 960.814 31.6391 959.824 34.9099C958.834 38.1805 960.683 41.6345 963.953 42.6245C967.224 43.6145 970.678 41.7655 971.668 38.4948ZM950.69 32.2687C952.029 31.5519 953.696 32.0563 954.412 33.3953L959.381 42.6772L967.729 45.2039L977.011 40.2352C978.35 39.5184 980.017 40.0228 980.733 41.3618C981.45 42.7009 980.946 44.3674 979.607 45.0842L969.468 50.5116L962.827 72.4521C962.387 73.9058 960.852 74.7275 959.398 74.2876L958.082 73.8892C956.628 73.4493 955.807 71.9142 956.247 70.4605L959.035 61.2482L957.719 60.8499L954.931 70.0622C954.491 71.5158 952.955 72.3376 951.502 71.8976L950.186 71.4993C948.732 71.0593 947.91 69.5242 948.35 68.0706L954.991 46.13L949.564 35.9909C948.847 34.6519 949.351 32.9855 950.69 32.2687Z" fill="#958472"/>
</g>
<g clip-path="url(#clip15_31_2214)">
<path d="M89.6925 284.949C92.8038 283.535 96.4717 284.912 97.885 288.023C99.2982 291.135 97.9217 294.803 94.8103 296.216C91.699 297.629 88.0311 296.253 86.6178 293.141C85.2046 290.03 86.5812 286.362 89.6925 284.949ZM98.6347 304.92C99.1683 303.499 98.4482 301.913 97.0263 301.38L87.1694 297.68L83.5624 289.739L87.2616 279.882C87.7953 278.461 87.0752 276.875 85.6533 276.342C84.2313 275.808 82.646 276.528 82.1123 277.95L78.0715 288.717L57.2003 298.197C55.8175 298.825 55.2057 300.456 55.8338 301.838L56.4024 303.09C57.0305 304.473 58.6607 305.085 60.0435 304.457L68.8069 300.476L69.3755 301.728L60.6122 305.709C59.2294 306.337 58.6176 307.967 59.2457 309.35L59.8143 310.602C60.4424 311.985 62.0726 312.596 63.4554 311.968L84.3267 302.488L95.0938 306.529C96.5158 307.063 98.101 306.342 98.6347 304.92Z" fill="#958472"/>
</g>
<g clip-path="url(#clip16_31_2214)">
<path d="M1851.32 284.949C1848.21 283.535 1844.54 284.912 1843.13 288.023C1841.72 291.135 1843.09 294.803 1846.21 296.216C1849.32 297.629 1852.98 296.253 1854.4 293.141C1855.81 290.03 1854.43 286.362 1851.32 284.949ZM1842.38 304.92C1841.85 303.499 1842.57 301.913 1843.99 301.38L1853.85 297.68L1857.45 289.739L1853.75 279.882C1853.22 278.461 1853.94 276.875 1855.36 276.342C1856.78 275.808 1858.37 276.528 1858.9 277.95L1862.94 288.717L1883.82 298.197C1885.2 298.825 1885.81 300.456 1885.18 301.838L1884.61 303.09C1883.99 304.473 1882.36 305.085 1880.97 304.457L1872.21 300.476L1871.64 301.728L1880.4 305.709C1881.79 306.337 1882.4 307.967 1881.77 309.35L1881.2 310.602C1880.57 311.985 1878.94 312.596 1877.56 311.968L1856.69 302.488L1845.92 306.529C1844.5 307.063 1842.92 306.342 1842.38 304.92Z" fill="#958472"/>
</g>
<g clip-path="url(#clip17_31_2214)">
<path d="M165.317 346.204C165.315 342.787 168.083 340.014 171.5 340.012C174.918 340.009 177.69 342.778 177.692 346.195C177.695 349.612 174.927 352.384 171.509 352.387C168.092 352.389 165.32 349.621 165.317 346.204ZM187.2 346.306C186.125 345.233 184.384 345.234 183.311 346.309L175.871 353.759L167.149 353.765L159.7 346.326C158.625 345.253 156.884 345.254 155.811 346.329C154.737 347.404 154.739 349.145 155.813 350.218L163.951 358.344L163.968 381.267C163.969 382.786 165.201 384.017 166.72 384.015L168.095 384.014C169.614 384.013 170.844 382.781 170.843 381.262L170.836 371.637L172.211 371.636L172.218 381.261C172.219 382.78 173.451 384.011 174.97 384.009L176.345 384.008C177.864 384.007 179.094 382.775 179.093 381.256L179.076 358.333L187.202 350.195C188.276 349.12 188.274 347.379 187.2 346.306Z" fill="#958472"/>
</g>
<g clip-path="url(#clip18_31_2214)">
<path d="M1775.7 346.204C1775.7 342.787 1772.93 340.014 1769.52 340.012C1766.1 340.009 1763.33 342.778 1763.32 346.195C1763.32 349.612 1766.09 352.384 1769.51 352.387C1772.92 352.389 1775.7 349.621 1775.7 346.204ZM1753.82 346.306C1754.89 345.233 1756.63 345.234 1757.71 346.309L1765.15 353.759L1773.87 353.765L1781.32 346.326C1782.39 345.253 1784.13 345.254 1785.21 346.329C1786.28 347.404 1786.28 349.145 1785.2 350.218L1777.07 358.344L1777.05 381.267C1777.05 382.786 1775.82 384.017 1774.3 384.015L1772.92 384.014C1771.4 384.013 1770.17 382.781 1770.17 381.262L1770.18 371.637L1768.81 371.636L1768.8 381.261C1768.8 382.78 1767.57 384.011 1766.05 384.009L1764.67 384.008C1763.15 384.007 1761.92 382.775 1761.92 381.256L1761.94 358.333L1753.81 350.195C1752.74 349.12 1752.74 347.379 1753.82 346.306Z" fill="#958472"/>
</g>
<g clip-path="url(#clip19_31_2214)">
<path d="M290.891 393.636C289.619 390.464 291.16 386.863 294.332 385.591C297.504 384.32 301.106 385.861 302.377 389.033C303.649 392.205 302.108 395.807 298.936 397.078C295.764 398.349 292.162 396.808 290.891 393.636ZM311.246 385.605C309.85 385.008 308.233 385.656 307.636 387.052L303.495 396.732L295.399 399.977L285.72 395.836C284.323 395.239 282.707 395.886 282.11 397.283C281.512 398.679 282.16 400.295 283.557 400.893L294.13 405.416L302.658 426.694C303.223 428.104 304.824 428.788 306.234 428.223L307.51 427.712C308.92 427.147 309.605 425.546 309.04 424.136L305.459 415.202L306.735 414.691L310.316 423.625C310.881 425.035 312.482 425.719 313.892 425.154L315.168 424.643C316.578 424.078 317.263 422.477 316.697 421.067L308.17 399.789L312.693 389.215C313.29 387.819 312.642 386.203 311.246 385.605Z" fill="#958472"/>
</g>
<g clip-path="url(#clip20_31_2214)">
<path d="M1650.13 393.636C1651.4 390.464 1649.86 386.863 1646.68 385.591C1643.51 384.32 1639.91 385.861 1638.64 389.033C1637.37 392.205 1638.91 395.807 1642.08 397.078C1645.25 398.349 1648.85 396.808 1650.13 393.636ZM1629.77 385.605C1631.17 385.008 1632.78 385.656 1633.38 387.052L1637.52 396.732L1645.62 399.977L1655.3 395.836C1656.69 395.239 1658.31 395.886 1658.91 397.283C1659.5 398.679 1658.86 400.295 1657.46 400.893L1646.89 405.416L1638.36 426.694C1637.79 428.104 1636.19 428.788 1634.78 428.223L1633.51 427.712C1632.1 427.147 1631.41 425.546 1631.98 424.136L1635.56 415.202L1634.28 414.691L1630.7 423.625C1630.14 425.035 1628.53 425.719 1627.12 425.154L1625.85 424.643C1624.44 424.078 1623.75 422.477 1624.32 421.067L1632.85 399.789L1628.32 389.215C1627.73 387.819 1628.37 386.203 1629.77 385.605Z" fill="#958472"/>
</g>
<g clip-path="url(#clip21_31_2214)">
<path d="M92.8747 447.183C91.6034 444.011 93.1442 440.409 96.3162 439.138C99.4882 437.867 103.09 439.408 104.361 442.58C105.633 445.752 104.092 449.354 100.92 450.625C97.7479 451.896 94.1459 450.355 92.8747 447.183ZM113.23 439.152C111.834 438.555 110.217 439.203 109.62 440.599L105.479 450.279L97.3835 453.524L87.7038 449.383C86.3075 448.785 84.6912 449.433 84.0939 450.83C83.4966 452.226 84.1443 453.842 85.5407 454.44L96.1143 458.963L104.642 480.241C105.207 481.651 106.808 482.335 108.218 481.77L109.494 481.259C110.904 480.694 111.589 479.093 111.024 477.683L107.443 468.749L108.719 468.237L112.3 477.172C112.865 478.581 114.466 479.266 115.876 478.701L117.152 478.19C118.562 477.625 119.247 476.024 118.682 474.614L110.154 453.336L114.677 442.762C115.274 441.366 114.626 439.75 113.23 439.152Z" fill="#958472"/>
</g>
<g clip-path="url(#clip22_31_2214)">
<path d="M1848.14 447.183C1849.41 444.011 1847.87 440.409 1844.7 439.138C1841.53 437.867 1837.93 439.408 1836.65 442.58C1835.38 445.752 1836.92 449.354 1840.1 450.625C1843.27 451.896 1846.87 450.355 1848.14 447.183ZM1827.79 439.152C1829.18 438.555 1830.8 439.203 1831.4 440.599L1835.54 450.279L1843.63 453.524L1853.31 449.383C1854.71 448.785 1856.33 449.433 1856.92 450.83C1857.52 452.226 1856.87 453.842 1855.48 454.44L1844.9 458.963L1836.37 480.241C1835.81 481.651 1834.21 482.335 1832.8 481.77L1831.52 481.259C1830.11 480.694 1829.43 479.093 1829.99 477.683L1833.57 468.749L1832.3 468.237L1828.72 477.172C1828.15 478.581 1826.55 479.266 1825.14 478.701L1823.86 478.19C1822.45 477.625 1821.77 476.024 1822.33 474.614L1830.86 453.336L1826.34 442.762C1825.74 441.366 1826.39 439.75 1827.79 439.152Z" fill="#958472"/>
</g>
<g clip-path="url(#clip23_31_2214)">
<path d="M148.453 176.812C146.044 179.236 142.127 179.248 139.703 176.839C137.279 174.43 137.267 170.512 139.676 168.088C142.085 165.665 146.002 165.653 148.426 168.062C150.85 170.471 150.862 174.388 148.453 176.812ZM133.016 161.303C133.021 162.822 134.256 164.049 135.774 164.044L146.302 164.012L152.489 170.161L152.521 180.689C152.526 182.207 153.761 183.435 155.279 183.43C156.798 183.425 158.026 182.19 158.021 180.672L157.986 169.171L174.145 152.912C175.216 151.835 175.21 150.094 174.133 149.023L173.158 148.054C172.081 146.983 170.339 146.989 169.269 148.066L162.484 154.893L161.509 153.923L168.294 147.097C169.364 146.019 169.359 144.278 168.282 143.208L167.306 142.238C166.229 141.168 164.488 141.173 163.417 142.25L147.258 158.509L135.757 158.545C134.239 158.549 133.011 159.784 133.016 161.303Z" fill="#958472"/>
</g>
<g clip-path="url(#clip24_31_2214)">
<path d="M1792.56 176.812C1794.97 179.236 1798.89 179.248 1801.31 176.839C1803.74 174.43 1803.75 170.512 1801.34 168.088C1798.93 165.665 1795.01 165.653 1792.59 168.062C1790.17 170.471 1790.15 174.388 1792.56 176.812ZM1808 161.303C1808 162.822 1806.76 164.049 1805.24 164.044L1794.71 164.012L1788.53 170.161L1788.5 180.689C1788.49 182.207 1787.26 183.435 1785.74 183.43C1784.22 183.425 1782.99 182.19 1783 180.672L1783.03 169.171L1766.87 152.912C1765.8 151.835 1765.81 150.094 1766.88 149.023L1767.86 148.054C1768.94 146.983 1770.68 146.989 1771.75 148.066L1778.53 154.893L1779.51 153.923L1772.72 147.097C1771.65 146.019 1771.66 144.278 1772.73 143.208L1773.71 142.238C1774.79 141.168 1776.53 141.173 1777.6 142.25L1793.76 158.509L1805.26 158.545C1806.78 158.549 1808 159.784 1808 161.303Z" fill="#958472"/>
</g>
<g clip-path="url(#clip25_31_2214)">
<path d="M1410.07 161.511C1410.99 164.803 1414.4 166.729 1417.69 165.813C1420.99 164.897 1422.91 161.485 1422 158.193C1421.08 154.901 1417.67 152.975 1414.38 153.891C1411.08 154.807 1409.16 158.219 1410.07 161.511ZM1431.12 155.53C1430.38 156.852 1428.7 157.319 1427.38 156.573L1418.21 151.397L1409.81 153.736L1404.63 162.904C1403.88 164.227 1402.21 164.693 1400.88 163.947C1399.56 163.2 1399.09 161.523 1399.84 160.2L1405.5 150.185L1399.35 128.101C1398.94 126.638 1399.8 125.122 1401.26 124.715L1402.58 124.346C1404.05 123.939 1405.56 124.795 1405.97 126.258L1408.55 135.53L1409.88 135.162L1407.3 125.889C1406.89 124.426 1407.74 122.91 1409.21 122.502L1410.53 122.134C1412 121.727 1413.51 122.583 1413.92 124.046L1420.07 146.13L1430.08 151.783C1431.4 152.53 1431.87 154.207 1431.12 155.53Z" fill="#958472"/>
</g>
<g clip-path="url(#clip26_31_2214)">
<path d="M1023.07 161.511C1023.99 164.803 1027.4 166.729 1030.69 165.813C1033.99 164.897 1035.91 161.485 1035 158.193C1034.08 154.901 1030.67 152.975 1027.38 153.891C1024.08 154.807 1022.16 158.219 1023.07 161.511ZM1044.12 155.53C1043.38 156.852 1041.7 157.319 1040.38 156.573L1031.21 151.397L1022.81 153.736L1017.63 162.904C1016.88 164.227 1015.21 164.693 1013.88 163.947C1012.56 163.2 1012.09 161.523 1012.84 160.2L1018.5 150.185L1012.35 128.101C1011.94 126.638 1012.8 125.122 1014.26 124.715L1015.58 124.346C1017.05 123.939 1018.56 124.795 1018.97 126.258L1021.55 135.53L1022.88 135.162L1020.3 125.889C1019.89 124.426 1020.74 122.91 1022.21 122.502L1023.53 122.134C1025 121.727 1026.51 122.583 1026.92 124.046L1033.07 146.13L1043.08 151.783C1044.4 152.53 1044.87 154.207 1044.12 155.53Z" fill="#958472"/>
</g>
<g clip-path="url(#clip27_31_2214)">
<path d="M751.075 95.5111C751.991 98.8033 755.403 100.729 758.695 99.8129C761.987 98.8965 763.913 95.485 762.997 92.1928C762.08 88.9008 758.669 86.9747 755.376 87.8911C752.084 88.8074 750.158 92.2191 751.075 95.5111ZM772.124 89.5299C771.377 90.8525 769.7 91.3194 768.377 90.5727L759.209 85.3971L750.806 87.7358L745.631 96.9039C744.884 98.2265 743.207 98.6934 741.884 97.9467C740.562 97.2001 740.095 95.5227 740.841 94.2001L746.495 84.1854L740.348 62.1014C739.941 60.6383 740.797 59.122 742.26 58.7147L743.585 58.346C745.048 57.9388 746.564 58.7947 746.971 60.2579L749.552 69.5304L750.877 69.1617L748.296 59.8892C747.889 58.426 748.745 56.9098 750.208 56.5025L751.533 56.1338C752.996 55.7265 754.512 56.5825 754.919 58.0457L761.066 80.1297L771.081 85.7833C772.404 86.5299 772.87 88.2073 772.124 89.5299Z" fill="#958472"/>
</g>
</g>
<defs>
<clipPath id="clip0_31_2214">
<rect width="112.484" height="149.978" fill="white" transform="matrix(-0.959464 0.281831 0.281831 0.959464 677.377 86)"/>
</clipPath>
<clipPath id="clip1_31_2214">
<rect width="33" height="44" fill="white" transform="translate(194 260.195) rotate(-33.4604)"/>
</clipPath>
<clipPath id="clip2_31_2214">
<rect width="33" height="44" fill="white" transform="matrix(-0.834267 -0.551361 -0.551361 0.834267 1747.02 260.195)"/>
</clipPath>
<clipPath id="clip3_31_2214">
<rect width="33" height="44" fill="white" transform="translate(286.824 164) rotate(14.2411)"/>
</clipPath>
<clipPath id="clip4_31_2214">
<rect width="33" height="44" fill="white" transform="matrix(-0.969269 0.246002 0.246002 0.969269 1654.19 164)"/>
</clipPath>
<clipPath id="clip5_31_2214">
<rect width="33" height="44" fill="white" transform="matrix(-0.832558 0.553938 0.553938 0.832558 1248.47 83)"/>
</clipPath>
<clipPath id="clip6_31_2214">
<rect width="33" height="44" fill="white" transform="matrix(-0.832558 0.553938 0.553938 0.832558 861.474 83)"/>
</clipPath>
<clipPath id="clip7_31_2214">
<rect width="33" height="44" fill="white" transform="translate(59 71.1948) rotate(-33.4604)"/>
</clipPath>
<clipPath id="clip8_31_2214">
<rect width="33" height="44" fill="white" transform="matrix(-0.834267 -0.551361 -0.551361 0.834267 1882.02 71.1948)"/>
</clipPath>
<clipPath id="clip9_31_2214">
<rect width="33" height="44" fill="white" transform="matrix(-0.458178 -0.888861 -0.888861 0.458178 1555.23 65.3325)"/>
</clipPath>
<clipPath id="clip10_31_2214">
<rect width="33" height="44" fill="white" transform="matrix(-0.458178 -0.888861 -0.888861 0.458178 1168.23 65.3325)"/>
</clipPath>
<clipPath id="clip11_31_2214">
<rect width="33" height="44" fill="white" transform="translate(255.471 46) rotate(12.4305)"/>
</clipPath>
<clipPath id="clip12_31_2214">
<rect width="33" height="44" fill="white" transform="matrix(-0.976558 0.215254 0.215254 0.976558 1685.55 46)"/>
</clipPath>
<clipPath id="clip13_31_2214">
<rect width="33" height="44" fill="white" transform="matrix(-0.95712 -0.289692 -0.289692 0.95712 1370.33 35.5601)"/>
</clipPath>
<clipPath id="clip14_31_2214">
<rect width="33" height="44" fill="white" transform="matrix(-0.95712 -0.289692 -0.289692 0.95712 983.331 35.5601)"/>
</clipPath>
<clipPath id="clip15_31_2214">
<rect width="33" height="44" fill="white" transform="translate(91.0609 273) rotate(65.5711)"/>
</clipPath>
<clipPath id="clip16_31_2214">
<rect width="33" height="44" fill="white" transform="matrix(-0.413564 0.910475 0.910475 0.413564 1849.96 273)"/>
</clipPath>
<clipPath id="clip17_31_2214">
<rect width="33" height="44" fill="white" transform="translate(155 340.024) rotate(-0.0415334)"/>
</clipPath>
<clipPath id="clip18_31_2214">
<rect width="33" height="44" fill="white" transform="matrix(-1 -0.000724894 -0.000724894 1 1786.02 340.024)"/>
</clipPath>
<clipPath id="clip19_31_2214">
<rect width="33" height="44" fill="white" transform="translate(279.016 391.729) rotate(-21.8401)"/>
</clipPath>
<clipPath id="clip20_31_2214">
<rect width="33" height="44" fill="white" transform="matrix(-0.928226 -0.372018 -0.372018 0.928226 1662 391.729)"/>
</clipPath>
<clipPath id="clip21_31_2214">
<rect width="33" height="44" fill="white" transform="translate(81 445.276) rotate(-21.8401)"/>
</clipPath>
<clipPath id="clip22_31_2214">
<rect width="33" height="44" fill="white" transform="matrix(-0.928226 -0.372018 -0.372018 0.928226 1860.02 445.276)"/>
</clipPath>
<clipPath id="clip23_31_2214">
<rect width="33" height="44" fill="white" transform="translate(151.406 188.471) rotate(-135.176)"/>
</clipPath>
<clipPath id="clip24_31_2214">
<rect width="33" height="44" fill="white" transform="matrix(0.709276 -0.704931 -0.704931 -0.709276 1789.61 188.471)"/>
</clipPath>
<clipPath id="clip25_31_2214">
<rect width="33" height="44" fill="white" transform="matrix(0.963378 -0.268147 -0.268147 -0.963378 1401.8 170.237)"/>
</clipPath>
<clipPath id="clip26_31_2214">
<rect width="33" height="44" fill="white" transform="matrix(0.963378 -0.268147 -0.268147 -0.963378 1014.8 170.237)"/>
</clipPath>
<clipPath id="clip27_31_2214">
<rect width="33" height="44" fill="white" transform="matrix(0.963378 -0.268147 -0.268147 -0.963378 742.799 104.237)"/>
</clipPath>
</defs>
</svg>
