<svg width="1920" height="509" viewBox="0 0 1920 509" fill="none" xmlns="http://www.w3.org/2000/svg">
<rect width="1920" height="509" fill="#77DFDB"/>
<g opacity="0.5">
<path d="M208.404 413.027C208.404 415.56 207.608 420.106 201.268 420.106C194.928 420.106 192.49 415.606 192.49 413.027C192.49 410.447 194.979 406.489 201.268 406.489C207.562 406.489 208.401 410.839 208.401 413.027L208.404 413.027ZM200.445 399.111C200.445 401.644 199.653 406.19 193.313 406.19C186.973 406.19 184.534 401.691 184.534 399.111C184.534 396.531 187.019 392.573 193.313 392.573C199.602 392.573 200.445 396.923 200.445 399.111V399.111ZM201.268 436.901C207.608 436.901 208.401 432.355 208.401 429.822C208.401 427.634 207.562 423.284 201.268 423.284C194.979 423.284 192.49 427.242 192.49 429.822C192.49 432.402 194.928 436.901 201.268 436.901ZM200.445 443.438C200.445 445.972 199.653 450.517 193.313 450.517C186.973 450.517 184.534 446.018 184.534 443.438C184.534 440.859 187.019 436.901 193.313 436.901C199.602 436.901 200.445 441.25 200.445 443.438ZM169.353 440.678C180.753 440.678 190.628 433.423 190.628 421.545C190.628 409.668 180.999 402.531 169.353 402.531C159.661 402.531 159.661 413.898 159.661 421.518L159.661 421.545C159.661 430.002 159.965 440.678 169.353 440.678V440.678ZM153.442 445.177C153.442 447.711 152.65 452.256 146.309 452.256C139.969 452.256 137.531 447.757 137.531 445.177C137.531 442.598 140.02 438.64 146.309 438.64C152.603 438.64 153.442 442.989 153.442 445.177ZM154.265 466.172C160.605 466.172 161.397 461.627 161.397 459.093C161.397 456.905 160.558 452.556 154.265 452.556C147.975 452.556 145.486 456.514 145.486 459.093C145.486 461.673 147.925 466.172 154.265 466.172ZM161.397 475.888C161.397 478.422 160.605 482.967 154.265 482.967C147.925 482.967 145.486 478.468 145.486 475.888C145.486 473.309 147.975 469.351 154.265 469.351C160.558 469.351 161.397 473.7 161.397 475.888ZM146.309 496.584C152.65 496.584 153.442 492.038 153.442 489.505C153.442 487.317 152.603 482.967 146.309 482.967C140.02 482.967 137.531 486.925 137.531 489.505C137.531 492.085 139.969 496.584 146.309 496.584ZM143.625 467.612C143.625 479.489 133.754 486.745 122.349 486.745C112.962 486.745 112.658 476.073 112.658 467.612L112.658 467.581C112.658 459.965 112.658 448.598 122.349 448.598C133.996 448.598 143.625 455.738 143.625 467.612Z" fill="#57B6B2"/>
</g>
<g opacity="0.5">
<path d="M1727.45 413.027C1727.45 415.56 1728.25 420.106 1734.59 420.106C1740.93 420.106 1743.36 415.606 1743.36 413.027C1743.36 410.447 1740.88 406.489 1734.59 406.489C1728.29 406.489 1727.45 410.839 1727.45 413.027L1727.45 413.027ZM1735.41 399.111C1735.41 401.644 1736.2 406.19 1742.54 406.19C1748.88 406.19 1751.32 401.691 1751.32 399.111C1751.32 396.531 1748.83 392.573 1742.54 392.573C1736.25 392.573 1735.41 396.923 1735.41 399.111V399.111ZM1734.59 436.901C1728.25 436.901 1727.45 432.355 1727.45 429.822C1727.45 427.634 1728.29 423.284 1734.59 423.284C1740.88 423.284 1743.36 427.242 1743.36 429.822C1743.36 432.402 1740.93 436.901 1734.59 436.901ZM1735.41 443.438C1735.41 445.972 1736.2 450.517 1742.54 450.517C1748.88 450.517 1751.32 446.018 1751.32 443.438C1751.32 440.859 1748.83 436.901 1742.54 436.901C1736.25 436.901 1735.41 441.25 1735.41 443.438ZM1766.5 440.678C1755.1 440.678 1745.23 433.423 1745.23 421.545C1745.23 409.668 1754.85 402.531 1766.5 402.531C1776.19 402.531 1776.19 413.898 1776.19 421.518L1776.19 421.545C1776.19 430.002 1775.89 440.678 1766.5 440.678V440.678ZM1782.41 445.177C1782.41 447.711 1783.2 452.256 1789.54 452.256C1795.88 452.256 1798.32 447.757 1798.32 445.177C1798.32 442.598 1795.83 438.64 1789.54 438.64C1783.25 438.64 1782.41 442.989 1782.41 445.177ZM1781.59 466.172C1775.25 466.172 1774.46 461.627 1774.46 459.093C1774.46 456.905 1775.3 452.556 1781.59 452.556C1787.88 452.556 1790.37 456.514 1790.37 459.093C1790.37 461.673 1787.93 466.172 1781.59 466.172ZM1774.46 475.888C1774.46 478.422 1775.25 482.967 1781.59 482.967C1787.93 482.967 1790.37 478.468 1790.37 475.888C1790.37 473.309 1787.88 469.351 1781.59 469.351C1775.3 469.351 1774.46 473.7 1774.46 475.888ZM1789.54 496.584C1783.2 496.584 1782.41 492.038 1782.41 489.505C1782.41 487.317 1783.25 482.967 1789.54 482.967C1795.83 482.967 1798.32 486.925 1798.32 489.505C1798.32 492.085 1795.88 496.584 1789.54 496.584ZM1792.23 467.612C1792.23 479.489 1802.1 486.745 1813.5 486.745C1822.89 486.745 1823.2 476.073 1823.2 467.612L1823.2 467.581C1823.2 459.965 1823.2 448.598 1813.5 448.598C1801.86 448.598 1792.23 455.738 1792.23 467.612Z" fill="#57B6B2"/>
</g>
<g opacity="0.5" clip-path="url(#clip0_31_2215)">
<path d="M815.651 130.212C813.83 132.004 810.001 134.664 805.517 130.253C801.034 125.842 802.543 120.964 804.397 119.14C806.251 117.316 810.856 116.249 815.303 120.625C819.753 125.003 817.221 128.662 815.648 130.21L815.651 130.212ZM820.024 114.835C818.203 116.626 814.376 119.289 809.893 114.878C805.41 110.467 806.919 105.589 808.773 103.765C810.627 101.941 815.229 100.871 819.679 105.25C824.126 109.626 821.596 113.287 820.024 114.835V114.835ZM793.447 142.129C797.93 146.54 801.757 143.877 803.578 142.086C805.15 140.538 807.683 136.879 803.233 132.501C798.786 128.125 794.181 129.192 792.327 131.016C790.473 132.84 788.964 137.718 793.447 142.129ZM788.167 146.179C786.346 147.971 782.519 150.633 778.036 146.222C773.553 141.811 775.062 136.933 776.916 135.109C778.77 133.285 783.372 132.216 787.822 136.594C792.269 140.97 789.739 144.632 788.167 146.179ZM768.165 122.595C776.226 130.527 788.423 132.267 796.959 123.869C805.495 115.47 803.815 103.724 795.58 95.6215C788.727 88.8787 780.558 96.9164 775.081 102.305L775.062 102.324C768.984 108.304 761.527 116.064 768.165 122.595V122.595ZM753.68 114.707C751.86 116.499 748.033 119.162 743.55 114.751C739.067 110.34 740.576 105.462 742.43 103.637C744.284 101.813 748.888 100.747 753.336 105.122C757.786 109.501 755.253 113.16 753.68 114.707ZM739.174 130.125C743.657 134.537 747.484 131.874 749.305 130.082C750.877 128.535 753.41 124.876 748.96 120.497C744.513 116.121 739.908 117.188 738.054 119.012C736.2 120.836 734.691 125.714 739.174 130.125ZM737.235 141.958C735.414 143.75 731.587 146.412 727.104 142.001C722.621 137.59 724.13 132.712 725.984 130.888C727.838 129.064 732.443 127.997 736.89 132.373C741.34 136.752 738.807 140.411 737.235 141.958ZM711.693 146.095C716.176 150.506 720.003 147.843 721.824 146.051C723.396 144.504 725.929 140.845 721.479 136.467C717.031 132.091 712.427 133.158 710.573 134.982C708.719 136.806 707.21 141.684 711.693 146.095ZM730.616 123.741C722.08 132.14 709.886 130.402 701.822 122.468C695.184 115.937 702.638 108.179 708.719 102.196L708.741 102.174C714.214 96.7888 722.384 88.7512 729.237 95.494C737.472 103.597 739.149 115.345 730.616 123.741Z" fill="#57B6B2"/>
</g>
<g opacity="0.5">
<path d="M354.067 237.536C354.067 240.069 353.271 244.614 346.93 244.614C340.59 244.614 338.152 240.115 338.152 237.536C338.152 234.956 340.641 230.998 346.93 230.998C353.224 230.998 354.063 235.347 354.063 237.536L354.067 237.536ZM346.107 223.62C346.107 226.153 345.315 230.699 338.975 230.699C332.635 230.699 330.196 226.199 330.196 223.62C330.196 221.04 332.682 217.082 338.975 217.082C345.264 217.082 346.107 221.431 346.107 223.62V223.62ZM346.93 261.409C353.271 261.409 354.063 256.864 354.063 254.331C354.063 252.142 353.224 247.793 346.93 247.793C340.641 247.793 338.152 251.751 338.152 254.331C338.152 256.91 340.59 261.409 346.93 261.409ZM346.107 267.947C346.107 270.481 345.315 275.026 338.975 275.026C332.635 275.026 330.196 270.527 330.196 267.947C330.196 265.367 332.682 261.409 338.975 261.409C345.264 261.409 346.107 265.759 346.107 267.947ZM315.015 265.187C326.415 265.187 336.291 257.931 336.291 246.054C336.291 234.177 326.661 227.04 315.015 227.04C305.323 227.04 305.323 238.407 305.323 246.027L305.323 246.054C305.323 254.511 305.627 265.187 315.015 265.187V265.187ZM299.104 269.686C299.104 272.22 298.312 276.765 291.972 276.765C285.631 276.765 283.193 272.266 283.193 269.686C283.193 267.106 285.682 263.149 291.972 263.149C298.265 263.149 299.104 267.498 299.104 269.686ZM299.927 290.681C306.267 290.681 307.059 286.136 307.059 283.602C307.059 281.414 306.22 277.064 299.927 277.064C293.638 277.064 291.148 281.022 291.148 283.602C291.148 286.182 293.587 290.681 299.927 290.681ZM307.059 300.397C307.059 302.931 306.267 307.476 299.927 307.476C293.587 307.476 291.148 302.977 291.148 300.397C291.148 297.817 293.638 293.859 299.927 293.859C306.22 293.859 307.059 298.209 307.059 300.397ZM291.972 321.092C298.312 321.092 299.104 316.547 299.104 314.014C299.104 311.825 298.265 307.476 291.972 307.476C285.682 307.476 283.193 311.434 283.193 314.014C283.193 316.593 285.631 321.092 291.972 321.092ZM289.287 292.12C289.287 303.998 279.416 311.253 268.011 311.253C258.624 311.253 258.32 300.581 258.32 292.12L258.32 292.09C258.32 284.473 258.32 273.107 268.011 273.107C279.658 273.107 289.287 280.247 289.287 292.12Z" fill="#57B6B2"/>
</g>
<g opacity="0.5">
<path d="M1685.83 237.536C1685.83 240.069 1686.63 244.614 1692.97 244.614C1699.31 244.614 1701.75 240.115 1701.75 237.536C1701.75 234.956 1699.26 230.998 1692.97 230.998C1686.67 230.998 1685.84 235.347 1685.84 237.536L1685.83 237.536ZM1693.79 223.62C1693.79 226.153 1694.58 230.699 1700.92 230.699C1707.26 230.699 1709.7 226.199 1709.7 223.62C1709.7 221.04 1707.22 217.082 1700.92 217.082C1694.63 217.082 1693.79 221.431 1693.79 223.62V223.62ZM1692.97 261.409C1686.63 261.409 1685.84 256.864 1685.84 254.331C1685.84 252.142 1686.67 247.793 1692.97 247.793C1699.26 247.793 1701.75 251.751 1701.75 254.331C1701.75 256.91 1699.31 261.409 1692.97 261.409ZM1693.79 267.947C1693.79 270.481 1694.58 275.026 1700.92 275.026C1707.26 275.026 1709.7 270.527 1709.7 267.947C1709.7 265.367 1707.22 261.409 1700.92 261.409C1694.63 261.409 1693.79 265.759 1693.79 267.947ZM1724.88 265.187C1713.48 265.187 1703.61 257.931 1703.61 246.054C1703.61 234.177 1713.24 227.04 1724.88 227.04C1734.58 227.04 1734.58 238.407 1734.58 246.027L1734.58 246.054C1734.58 254.511 1734.27 265.187 1724.88 265.187V265.187ZM1740.79 269.686C1740.79 272.22 1741.59 276.765 1747.93 276.765C1754.27 276.765 1756.71 272.266 1756.71 269.686C1756.71 267.106 1754.22 263.149 1747.93 263.149C1741.63 263.149 1740.79 267.498 1740.79 269.686ZM1739.97 290.681C1733.63 290.681 1732.84 286.136 1732.84 283.602C1732.84 281.414 1733.68 277.064 1739.97 277.064C1746.26 277.064 1748.75 281.022 1748.75 283.602C1748.75 286.182 1746.31 290.681 1739.97 290.681ZM1732.84 300.397C1732.84 302.931 1733.63 307.476 1739.97 307.476C1746.31 307.476 1748.75 302.977 1748.75 300.397C1748.75 297.817 1746.26 293.859 1739.97 293.859C1733.68 293.859 1732.84 298.209 1732.84 300.397ZM1747.93 321.092C1741.59 321.092 1740.79 316.547 1740.79 314.014C1740.79 311.825 1741.63 307.476 1747.93 307.476C1754.22 307.476 1756.71 311.434 1756.71 314.014C1756.71 316.593 1754.27 321.092 1747.93 321.092ZM1750.61 292.12C1750.61 303.998 1760.48 311.253 1771.89 311.253C1781.27 311.253 1781.58 300.581 1781.58 292.12L1781.58 292.09C1781.58 284.473 1781.58 273.107 1771.89 273.107C1760.24 273.107 1750.61 280.247 1750.61 292.12Z" fill="#57B6B2"/>
</g>
<g opacity="0.5" clip-path="url(#clip1_31_2215)">
<path d="M191.193 88.163C192.672 90.2366 194.675 94.4066 189.486 97.9911C184.297 101.576 179.674 99.2721 178.168 97.1607C176.661 95.0494 176.387 90.4029 181.534 86.847C186.685 83.289 189.912 86.3744 191.19 88.1652L191.193 88.163ZM176.552 81.2738C178.031 83.3475 180.037 87.5152 174.848 91.0997C169.659 94.6842 165.036 92.3807 163.53 90.2693C162.023 88.158 161.746 83.5137 166.896 79.9556C172.044 76.3998 175.274 79.483 176.552 81.2738V81.2738ZM199.295 111.737C204.484 108.152 202.478 103.984 200.998 101.911C199.72 100.12 196.493 97.0345 191.343 100.593C186.195 104.148 186.469 108.795 187.976 110.906C189.483 113.018 194.106 115.321 199.295 111.737ZM202.439 117.553C203.919 119.626 205.925 123.794 200.736 127.378C195.547 130.963 190.924 128.659 189.417 126.548C187.911 124.437 187.633 119.792 192.784 116.234C197.931 112.679 201.161 115.762 202.439 117.553ZM175.38 132.872C184.711 126.427 188.556 114.906 181.619 105.185C174.683 95.4638 162.634 95.0672 153.102 101.652C145.17 107.131 151.809 116.434 156.259 122.671L156.275 122.693C161.214 129.614 167.698 138.179 175.38 132.872V132.872ZM164.986 145.55C166.466 147.623 168.472 151.791 163.283 155.376C158.094 158.96 153.471 156.657 151.964 154.545C150.457 152.434 150.183 147.787 155.331 144.232C160.481 140.674 163.708 143.759 164.986 145.55ZM177.921 162.267C183.11 158.683 181.104 154.515 179.624 152.441C178.346 150.65 175.12 147.565 169.969 151.123C164.821 154.679 165.096 159.325 166.602 161.437C168.109 163.548 172.732 165.852 177.921 162.267ZM189.433 166.187C190.912 168.26 192.918 172.428 187.729 176.013C182.541 179.597 177.917 177.294 176.411 175.182C174.904 173.071 174.63 168.424 179.777 164.869C184.928 161.31 188.155 164.396 189.433 166.187ZM189.171 191.654C194.36 188.07 192.353 183.902 190.874 181.829C189.596 180.038 186.369 176.952 181.219 180.51C176.071 184.066 176.345 188.713 177.852 190.824C179.358 192.935 183.982 195.239 189.171 191.654ZM170.054 169.461C176.99 179.182 173.149 190.7 163.815 197.148C156.132 202.455 149.65 193.893 144.709 186.969L144.691 186.943C140.243 180.71 133.605 171.407 141.537 165.928C151.069 159.343 163.119 159.743 170.054 169.461Z" fill="#57B6B2"/>
</g>
<g opacity="0.5" clip-path="url(#clip2_31_2215)">
<path d="M1607.45 88.163C1605.97 90.2366 1603.96 94.4066 1609.15 97.9911C1614.34 101.576 1618.96 99.2721 1620.47 97.1607C1621.98 95.0494 1622.25 90.4029 1617.1 86.847C1611.95 83.289 1608.73 86.3744 1607.45 88.1652L1607.45 88.163ZM1622.09 81.2738C1620.61 83.3475 1618.6 87.5152 1623.79 91.0997C1628.98 94.6842 1633.6 92.3807 1635.11 90.2693C1636.61 88.158 1636.89 83.5137 1631.74 79.9556C1626.59 76.3998 1623.36 79.483 1622.09 81.2738V81.2738ZM1599.34 111.737C1594.15 108.152 1596.16 103.984 1597.64 101.911C1598.92 100.12 1602.14 97.0345 1607.3 100.593C1612.44 104.148 1612.17 108.795 1610.66 110.906C1609.16 113.018 1604.53 115.321 1599.34 111.737ZM1596.2 117.553C1594.72 119.626 1592.71 123.794 1597.9 127.378C1603.09 130.963 1607.71 128.659 1609.22 126.548C1610.73 124.437 1611 119.792 1605.85 116.234C1600.71 112.679 1597.48 115.762 1596.2 117.553ZM1623.26 132.872C1613.93 126.427 1610.08 114.906 1617.02 105.185C1623.96 95.4638 1636 95.0672 1645.54 101.652C1653.47 107.131 1646.83 116.434 1642.38 122.671L1642.36 122.693C1637.42 129.614 1630.94 138.179 1623.26 132.872V132.872ZM1633.65 145.55C1632.17 147.623 1630.17 151.791 1635.35 155.376C1640.54 158.96 1645.17 156.657 1646.67 154.545C1648.18 152.434 1648.45 147.787 1643.31 144.232C1638.16 140.674 1634.93 143.759 1633.65 145.55ZM1620.72 162.267C1615.53 158.683 1617.53 154.515 1619.01 152.441C1620.29 150.65 1623.52 147.565 1628.67 151.123C1633.82 154.679 1633.54 159.325 1632.04 161.437C1630.53 163.548 1625.91 165.852 1620.72 162.267ZM1609.21 166.187C1607.73 168.26 1605.72 172.428 1610.91 176.013C1616.1 179.597 1620.72 177.294 1622.23 175.182C1623.73 173.071 1624.01 168.424 1618.86 164.869C1613.71 161.31 1610.48 164.396 1609.21 166.187ZM1609.47 191.654C1604.28 188.07 1606.28 183.902 1607.76 181.829C1609.04 180.038 1612.27 176.952 1617.42 180.51C1622.57 184.066 1622.29 188.713 1620.79 190.824C1619.28 192.935 1614.66 195.239 1609.47 191.654ZM1628.58 169.461C1621.65 179.182 1625.49 190.7 1634.82 197.148C1642.51 202.455 1648.99 193.893 1653.93 186.969L1653.95 186.943C1658.39 180.71 1665.03 171.407 1657.1 165.928C1647.57 159.343 1635.52 159.743 1628.58 169.461Z" fill="#57B6B2"/>
</g>
<g opacity="0.5" clip-path="url(#clip3_31_2215)">
<path d="M1115.44 144.617C1117.26 146.408 1121.09 149.068 1125.57 144.657C1130.06 140.246 1128.55 135.368 1126.69 133.544C1124.84 131.72 1120.23 130.653 1115.79 135.029C1111.34 139.408 1113.87 143.067 1115.44 144.614L1115.44 144.617ZM1111.07 129.239C1112.89 131.031 1116.71 133.694 1121.2 129.282C1125.68 124.871 1124.17 119.993 1122.32 118.169C1120.46 116.345 1115.86 115.276 1111.41 119.654C1106.96 124.03 1109.49 127.692 1111.07 129.239V129.239ZM1137.64 156.533C1133.16 160.944 1129.33 158.281 1127.51 156.49C1125.94 154.943 1123.41 151.283 1127.86 146.905C1132.3 142.529 1136.91 143.596 1138.76 145.42C1140.62 147.244 1142.13 152.122 1137.64 156.533ZM1142.92 160.583C1144.74 162.375 1148.57 165.038 1153.05 160.627C1157.54 156.216 1156.03 151.338 1154.17 149.514C1152.32 147.689 1147.72 146.62 1143.27 150.998C1138.82 155.374 1141.35 159.036 1142.92 160.583ZM1162.92 137C1154.86 144.932 1142.67 146.671 1134.13 138.273C1125.59 129.874 1127.27 118.129 1135.51 110.026C1142.36 103.283 1150.53 111.321 1156.01 116.709L1156.03 116.728C1162.11 122.708 1169.56 130.469 1162.92 137V137ZM1177.41 129.111C1179.23 130.903 1183.06 133.566 1187.54 129.155C1192.02 124.744 1190.51 119.866 1188.66 118.042C1186.81 116.218 1182.2 115.151 1177.75 119.527C1173.3 123.905 1175.84 127.564 1177.41 129.111ZM1191.91 144.53C1187.43 148.941 1183.61 146.278 1181.78 144.486C1180.21 142.939 1177.68 139.28 1182.13 134.901C1186.58 130.526 1191.18 131.592 1193.04 133.417C1194.89 135.241 1196.4 140.119 1191.91 144.53ZM1193.85 156.362C1195.68 158.154 1199.5 160.817 1203.99 156.406C1208.47 151.995 1206.96 147.117 1205.11 145.293C1203.25 143.468 1198.65 142.402 1194.2 146.777C1189.75 151.156 1192.28 154.815 1193.85 156.362ZM1219.4 160.499C1214.91 164.91 1211.09 162.247 1209.27 160.456C1207.69 158.908 1205.16 155.249 1209.61 150.871C1214.06 146.495 1218.66 147.562 1220.52 149.386C1222.37 151.21 1223.88 156.088 1219.4 160.499ZM1200.47 138.145C1209.01 146.544 1221.2 144.807 1229.27 136.872C1235.91 130.341 1228.45 122.583 1222.37 116.6L1222.35 116.579C1216.87 111.193 1208.71 103.155 1201.85 109.898C1193.62 118.001 1191.94 129.749 1200.47 138.145Z" fill="#57B6B2"/>
</g>
<g opacity="0.5" clip-path="url(#clip4_31_2215)">
<path d="M959.691 171.791C960.568 169.409 961.393 164.869 955.432 162.744C949.471 160.619 945.621 164.032 944.728 166.457C943.835 168.883 944.805 173.438 950.718 175.546C956.635 177.655 958.93 173.847 959.687 171.79L959.691 171.791ZM947.39 182.207C948.267 179.825 949.096 175.286 943.135 173.161C937.174 171.037 933.323 174.449 932.43 176.875C931.537 179.3 932.504 183.854 938.421 185.964C944.334 188.071 946.632 184.265 947.39 182.207V182.207ZM961.247 146.953C967.208 149.078 966.379 153.617 965.502 155.999C964.744 158.056 962.45 161.865 956.533 159.755C950.619 157.648 949.649 153.092 950.542 150.667C951.435 148.241 955.285 144.828 961.247 146.953ZM962.736 140.531C963.613 138.149 964.442 133.61 958.481 131.485C952.52 129.36 948.669 132.773 947.776 135.198C946.883 137.624 947.85 142.178 953.767 144.287C959.68 146.395 961.978 142.588 962.736 140.531ZM932.547 132.705C943.266 136.526 950.039 146.657 945.927 157.825C941.815 168.992 930.291 172.474 919.341 168.571C910.229 165.323 914.164 154.636 916.802 147.471L916.811 147.446C919.739 139.495 923.721 129.559 932.547 132.705V132.705ZM919.145 123.143C920.022 120.761 920.851 116.222 914.89 114.097C908.929 111.972 905.079 115.385 904.186 117.81C903.293 120.236 904.263 124.791 910.176 126.899C916.093 129.008 918.388 125.2 919.145 123.143ZM927.188 103.679C933.149 105.804 932.32 110.343 931.443 112.725C930.685 114.783 928.391 118.591 922.474 116.482C916.56 114.374 915.59 109.818 916.483 107.393C917.376 104.967 921.227 101.555 927.188 103.679ZM937.257 96.9346C938.134 94.5524 938.963 90.0136 933.002 87.8887C927.041 85.7638 923.191 89.1766 922.298 91.6021C921.405 94.0276 922.375 98.583 928.288 100.691C934.205 102.8 936.5 98.9919 937.257 96.9346ZM930.236 72.4202C936.197 74.5451 935.369 79.084 934.491 81.4661C933.734 83.5234 931.439 87.3316 925.522 85.2224C919.609 83.1146 918.639 78.5591 919.532 76.1337C920.425 73.7082 924.275 70.2954 930.236 72.4202ZM917.683 98.76C921.794 87.5928 915.025 77.463 904.303 73.6408C895.477 70.4947 891.496 80.4265 888.567 88.3815L888.556 88.4103C885.92 95.5712 881.984 106.258 891.096 109.506C902.046 113.41 913.572 109.924 917.683 98.76Z" fill="#57B6B2"/>
</g>
<g opacity="0.5" clip-path="url(#clip5_31_2215)">
<path d="M396.253 93.0909C395.161 90.7962 392.481 87.0117 386.739 89.6565C380.997 92.3012 380.727 97.3932 381.839 99.7296C382.95 102.066 386.91 104.612 392.607 101.989C398.306 99.3634 397.192 95.0743 396.249 93.0925L396.253 93.0909ZM395.04 109.014C393.948 106.72 391.273 102.934 385.53 105.578C379.788 108.223 379.518 113.315 380.63 115.652C381.742 117.988 385.698 120.536 391.398 117.911C397.094 115.287 395.983 110.996 395.04 109.014V109.014ZM379.502 74.4455C385.244 71.8008 387.92 75.5869 389.012 77.8816C389.955 79.8633 391.069 84.1525 385.37 86.7777C379.673 89.4013 375.713 86.8551 374.602 84.5187C373.49 82.1823 373.76 77.0903 379.502 74.4455ZM375.94 68.868C374.848 66.5733 372.172 62.7871 366.43 65.4319C360.688 68.0766 360.418 73.1686 361.529 75.505C362.641 77.8415 366.597 80.3893 372.297 77.7641C377.993 75.1405 376.883 70.8497 375.94 68.868ZM348.969 84.3376C359.295 79.5819 371.365 82.0338 376.483 92.791C381.601 103.548 375.955 114.028 365.407 118.886C356.629 122.929 351.731 112.634 348.448 105.733L348.436 105.709C344.792 98.0494 340.467 88.2535 348.969 84.3376V84.3376ZM332.62 86.8999C331.529 84.6052 328.853 80.8191 323.111 83.4639C317.368 86.1086 317.098 91.2006 318.21 93.537C319.322 95.8734 323.282 98.4196 328.978 95.796C334.678 93.1708 333.563 88.8817 332.62 86.8999ZM324.319 67.5419C330.062 64.8972 332.737 68.6833 333.829 70.978C334.772 72.9598 335.886 77.2489 330.187 79.8741C324.49 82.4977 320.53 79.9515 319.419 77.6151C318.307 75.2787 318.577 70.1867 324.319 67.5419ZM326.592 55.767C325.5 53.4724 322.825 49.6862 317.082 52.331C311.34 54.9757 311.07 60.0677 312.182 62.4041C313.294 64.7406 317.253 67.2868 322.95 64.6632C328.649 62.0379 327.535 57.7488 326.592 55.767ZM304.01 43.3174C309.752 40.6726 312.428 44.4587 313.52 46.7534C314.463 48.7352 315.577 53.0243 309.877 55.6495C304.181 58.2731 300.221 55.7269 299.11 53.3905C297.998 51.0541 298.268 45.9621 304.01 43.3174ZM314.063 70.6764C308.945 59.9193 296.878 57.4658 286.549 62.2231C278.047 66.1389 282.37 75.9314 286.016 83.5942L286.029 83.622C289.311 90.52 294.209 100.815 302.987 96.7719C313.535 91.9137 319.179 81.4301 314.063 70.6764Z" fill="#57B6B2"/>
</g>
<g opacity="0.5" clip-path="url(#clip6_31_2215)">
<path d="M1345.16 166.966C1344.28 164.584 1343.46 160.044 1349.42 157.919C1355.38 155.794 1359.23 159.207 1360.12 161.632C1361.01 164.058 1360.04 168.613 1354.13 170.721C1348.21 172.83 1345.92 169.022 1345.16 166.965L1345.16 166.966ZM1357.46 177.382C1356.58 175 1355.75 170.461 1361.71 168.336C1367.68 166.211 1371.53 169.624 1372.42 172.05C1373.31 174.475 1372.35 179.029 1366.43 181.138C1360.52 183.246 1358.22 179.439 1357.46 177.382V177.382ZM1343.6 142.128C1337.64 144.253 1338.47 148.792 1339.35 151.174C1340.11 153.231 1342.4 157.039 1348.32 154.93C1354.23 152.822 1355.2 148.267 1354.31 145.841C1353.41 143.416 1349.56 140.003 1343.6 142.128ZM1342.11 135.705C1341.24 133.323 1340.41 128.784 1346.37 126.66C1352.33 124.535 1356.18 127.948 1357.07 130.373C1357.97 132.798 1357 137.353 1351.08 139.462C1345.17 141.57 1342.87 137.763 1342.11 135.705ZM1372.3 127.88C1361.58 131.701 1354.81 141.832 1358.92 152.999C1363.03 164.167 1374.56 167.649 1385.51 163.746C1394.62 160.498 1390.69 149.811 1388.05 142.646L1388.04 142.621C1385.11 134.669 1381.13 124.734 1372.3 127.88V127.88ZM1385.7 118.318C1384.83 115.935 1384 111.397 1389.96 109.272C1395.92 107.147 1399.77 110.56 1400.66 112.985C1401.56 115.411 1400.59 119.966 1394.67 122.074C1388.76 124.183 1386.46 120.375 1385.7 118.318ZM1377.66 98.8542C1371.7 100.979 1372.53 105.518 1373.41 107.9C1374.16 109.957 1376.46 113.766 1382.38 111.656C1388.29 109.549 1389.26 104.993 1388.37 102.568C1387.47 100.142 1383.62 96.7293 1377.66 98.8542ZM1367.59 92.1094C1366.72 89.7272 1365.89 85.1884 1371.85 83.0635C1377.81 80.9386 1381.66 84.3515 1382.55 86.7769C1383.44 89.2024 1382.47 93.7578 1376.56 95.8657C1370.64 97.9749 1368.35 94.1667 1367.59 92.1094ZM1374.61 67.595C1368.65 69.7199 1369.48 74.2588 1370.36 76.6409C1371.12 78.6982 1373.41 82.5064 1379.33 80.3972C1385.24 78.2894 1386.21 73.7339 1385.32 71.3085C1384.42 68.883 1380.57 65.4702 1374.61 67.595ZM1387.17 93.9348C1383.05 82.7676 1389.82 72.6378 1400.55 68.8156C1409.37 65.6695 1413.35 75.6013 1416.28 83.5563L1416.29 83.5851C1418.93 90.746 1422.87 101.433 1413.75 104.681C1402.8 108.585 1391.28 105.098 1387.17 93.9348Z" fill="#57B6B2"/>
</g>
<defs>
<clipPath id="clip0_31_2215">
<rect width="123.853" height="123.853" fill="white" transform="matrix(-0.712819 0.701348 -0.712819 -0.701348 852.181 123.912)"/>
</clipPath>
<clipPath id="clip1_31_2215">
<rect width="123.511" height="124.193" fill="white" transform="matrix(0.580856 0.814006 -0.822775 0.568368 191.183 51.6724)"/>
</clipPath>
<clipPath id="clip2_31_2215">
<rect width="123.511" height="124.193" fill="white" transform="matrix(-0.580856 0.814006 0.822775 0.568368 1607.45 51.6724)"/>
</clipPath>
<clipPath id="clip3_31_2215">
<rect width="123.853" height="123.853" fill="white" transform="matrix(0.712819 0.701348 0.712819 -0.701348 1078.91 138.316)"/>
</clipPath>
<clipPath id="clip4_31_2215">
<rect width="123.079" height="124.622" fill="white" transform="matrix(0.345537 -0.938405 -0.941945 -0.335766 969.379 207.015)"/>
</clipPath>
<clipPath id="clip5_31_2215">
<rect width="123.208" height="124.494" fill="white" transform="matrix(-0.429625 -0.903007 -0.90829 0.418342 428.417 111.257)"/>
</clipPath>
<clipPath id="clip6_31_2215">
<rect width="123.079" height="124.622" fill="white" transform="matrix(-0.345537 -0.938405 0.941945 -0.335766 1335.47 202.189)"/>
</clipPath>
</defs>
</svg>
