<svg width="41" height="46" viewBox="0 0 41 46" fill="none" xmlns="http://www.w3.org/2000/svg">
<path d="M33.6776 15.8725C33.3283 14.8436 32.6651 13.9502 31.7814 13.318C30.8978 12.6858 29.8381 12.3466 28.7516 12.3482H24.5791V0L22.8256 0.250501C18.8478 0.818711 15.7494 2.83443 13.6172 6.24177C12.0799 8.69791 11.3653 11.4073 11.0336 13.4338C8.744 15.1955 6.75209 17.6211 5.10593 20.6541C3.71862 23.2098 2.5702 26.2052 1.69244 29.5573C0.209311 35.2212 0.00854537 39.9193 0.00076824 40.1165L0 45.5537H3.07197V40.2118C3.11037 39.4215 4.07781 22.1276 13.3485 15.5424L13.892 15.1563L13.9813 14.4956C14.4436 11.075 16.0413 5.42537 21.5067 3.68876V15.4206H28.7516C29.1958 15.4193 29.6293 15.5573 29.991 15.8152C30.3527 16.0731 30.6244 16.4379 30.7679 16.8583C31.9927 20.4738 34.0974 24.9981 37.3774 27.1242L36.3909 30.8235C36.0476 32.1427 35.2666 33.3063 34.1757 34.1238C33.0849 34.9414 31.7488 35.3644 30.3862 35.3237C27.6337 35.2411 24.7688 35.6002 21.8708 36.3905L20.7385 36.6991V45.5537H23.811V39.0696C25.9341 38.568 28.1129 38.3412 30.2939 38.3947C32.3478 38.4513 34.3606 37.8125 36.006 36.582C37.6514 35.3514 38.8331 33.6012 39.3593 31.6151L41 25.4624L39.7781 24.9388C37.493 23.9594 35.3265 20.7396 33.6776 15.8725Z" fill="white"/>
</svg>
