<svg width="19" height="45" viewBox="0 0 19 45" fill="none" xmlns="http://www.w3.org/2000/svg">
<path d="M12.2951 45H6.14754C5.33233 45 4.5505 44.673 3.97406 44.091C3.39761 43.509 3.07377 42.7196 3.07377 41.8966V31.0345C2.25856 31.0345 1.47673 30.7075 0.900287 30.1255C0.323843 29.5435 0 28.7541 0 27.931V18.6207C0 17.3861 0.485763 16.202 1.35043 15.329C2.21509 14.456 3.38783 13.9655 4.61066 13.9655H13.832C15.0548 13.9655 16.2275 14.456 17.0922 15.329C17.9569 16.202 18.4426 17.3861 18.4426 18.6207V27.931C18.4426 28.7541 18.1188 29.5435 17.5423 30.1255C16.9659 30.7075 16.1841 31.0345 15.3689 31.0345V41.8966C15.3689 42.7196 15.045 43.509 14.4686 44.091C13.8921 44.673 13.1103 45 12.2951 45ZM4.61066 17.069C4.40531 17.0553 4.19944 17.086 4.00682 17.1591C3.81419 17.2323 3.63927 17.3461 3.49375 17.493C3.34824 17.6399 3.23549 17.8165 3.16306 18.011C3.09063 18.2055 3.06019 18.4134 3.07377 18.6207V27.931H6.14754V41.8966H12.2951V27.931H15.3689V18.6207C15.3824 18.4134 15.352 18.2055 15.2796 18.011C15.2071 17.8165 15.0944 17.6399 14.9489 17.493C14.8034 17.3461 14.6284 17.2323 14.4358 17.1591C14.2432 17.086 14.0373 17.0553 13.832 17.069H4.61066ZM9.22131 12.4138C8.00544 12.4138 6.81688 12.0498 5.80592 11.3677C4.79496 10.6857 4.00702 9.71634 3.54172 8.58218C3.07643 7.44801 2.95469 6.20001 3.19189 4.99599C3.4291 3.79197 4.01459 2.68601 4.87434 1.81796C5.73409 0.949911 6.82948 0.358761 8.02199 0.119267C9.21449 -0.120228 10.4506 0.00268933 11.5739 0.472475C12.6972 0.94226 13.6573 1.73781 14.3328 2.75853C15.0083 3.77925 15.3689 4.97929 15.3689 6.2069C15.3689 7.85307 14.7212 9.43182 13.5683 10.5958C12.4154 11.7599 10.8517 12.4138 9.22131 12.4138ZM9.22131 3.10345C8.61338 3.10345 8.01909 3.28547 7.51362 3.62648C7.00814 3.96749 6.61416 4.45218 6.38152 5.01926C6.14887 5.58634 6.088 6.21034 6.2066 6.81235C6.3252 7.41436 6.61795 7.96734 7.04783 8.40137C7.4777 8.83539 8.0254 9.13097 8.62165 9.25072C9.2179 9.37046 9.83593 9.309 10.3976 9.07411C10.9593 8.83922 11.4393 8.44144 11.7771 7.93108C12.1148 7.42072 12.2951 6.8207 12.2951 6.2069C12.2951 5.38381 11.9712 4.59444 11.3948 4.01243C10.8184 3.43042 10.0365 3.10345 9.22131 3.10345Z" fill="white"/>
</svg>
