<svg width="82" height="116" viewBox="0 0 82 116" fill="none" xmlns="http://www.w3.org/2000/svg">
<path d="M7.15855 100.966C6.28141 98.5838 5.45621 94.0436 11.4173 91.9187C17.3783 89.7938 21.2286 93.2067 22.1217 95.6321C23.0148 98.0576 22.0446 102.613 16.1312 104.721C10.2142 106.83 7.91976 103.022 7.16222 100.965L7.15855 100.966ZM19.4596 111.382C18.5825 109 17.7536 104.461 23.7147 102.336C29.6757 100.211 33.526 103.624 34.4191 106.05C35.3122 108.475 34.3457 113.029 28.4286 115.138C22.5153 117.246 20.2172 113.439 19.4596 111.382ZM5.60286 76.128C-0.358196 78.2529 0.470675 82.7918 1.34782 85.1739C2.10535 87.2312 4.39981 91.0394 10.3168 88.9302C16.2302 86.8223 17.2004 82.2669 16.3073 79.8414C15.4142 77.416 11.5639 74.0031 5.60286 76.128ZM4.11358 69.7055C3.23643 67.3233 2.40756 62.7845 8.36861 60.6596C14.3297 58.5347 18.18 61.9475 19.0731 64.373C19.9662 66.7984 18.9996 71.3526 13.0826 73.4618C7.16924 75.5697 4.87111 71.7628 4.11358 69.7055ZM34.3021 61.8801C23.5832 65.701 16.8105 75.8322 20.9224 86.9994C25.0344 98.1665 36.5585 101.649 47.5085 97.7458C56.6206 94.4977 52.6854 83.8105 50.0474 76.6461L50.0381 76.6208C47.1103 68.6695 43.1282 58.734 34.3021 61.8801ZM47.704 52.3176C46.8269 49.9354 45.998 45.3966 51.9591 43.2717C57.9201 41.1468 61.7704 44.5596 62.6635 46.9851C63.5566 49.4106 62.5864 53.966 56.6731 56.0739C50.756 58.1831 48.4616 54.3749 47.704 52.3176ZM39.6617 32.8542C33.7006 34.9791 34.5295 39.5179 35.4066 41.9001C36.1642 43.9574 38.4586 47.7656 44.3757 45.6564C50.289 43.5485 51.2592 38.9931 50.3661 36.5676C49.473 34.1422 45.6227 30.7293 39.6617 32.8542ZM29.5922 26.1094C28.7151 23.7272 27.8862 19.1884 33.8473 17.0635C39.8083 14.9386 43.6586 18.3515 44.5517 20.7769C45.4448 23.2024 44.4746 27.7578 38.5613 29.8657C32.6442 31.9749 30.3498 28.1667 29.5922 26.1094ZM36.613 1.59504C30.652 3.71992 31.4808 8.25879 32.358 10.6409C33.1155 12.6982 35.41 16.5064 41.327 14.3972C47.2404 12.2894 48.2106 7.73391 47.3175 5.30846C46.4244 2.88301 42.5741 -0.529838 36.613 1.59504ZM49.1669 27.9348C45.0549 16.7676 51.824 6.63779 62.5465 2.81562C71.3726 -0.330511 75.3533 9.60135 78.2825 17.5563L78.2931 17.5851C80.9299 24.746 84.865 35.4331 75.7529 38.6813C64.8029 42.5845 53.2775 39.0984 49.1669 27.9348Z" fill="#57B6B2"/>
</svg>
