<svg width="39" height="36" viewBox="0 0 39 36" fill="none" xmlns="http://www.w3.org/2000/svg">
<path d="M30.5436 8.58157L25.8375 1.78358C25.4887 1.28079 25.0251 0.868362 24.4851 0.580471C23.9452 0.292579 23.3444 0.137514 22.7325 0.128125L13.8016 0H13.7832C9.17238 0 5.63469 0.771233 3.35623 4.53514C1.23496 8.03872 0.330078 14.0069 0.330078 24.4907V25.7719H3.25749L1.37302 35.3813H3.98436L5.86884 25.7719H6.73633C8.8289 25.7906 10.8449 24.9855 12.3488 23.5304C13.7085 22.2294 14.6892 20.4496 15.1851 18.3835L15.1896 18.3649L17.3872 7.83444H14.7694L12.6891 17.8032C12.0555 20.4202 10.1609 23.2094 6.73633 23.2094H2.89738C2.96697 14.1393 3.79282 8.76183 5.54837 5.8618C7.02181 3.42742 9.17551 2.5633 13.7743 2.5621L22.6957 2.69022C22.8996 2.69333 23.0999 2.74501 23.2799 2.84097C23.4599 2.93694 23.6144 3.07443 23.7307 3.24204L29.0541 10.9311L36.2051 12.1229V13.481L35.0126 19.8409C34.6606 21.718 34.059 22.6636 31.5918 22.9599L21.4774 24.6903L21.4106 35.3813H23.9731L24.0265 26.8536L31.9302 25.5002C33.7207 25.2801 35.0418 24.7031 35.9682 23.7367C36.7602 22.9104 37.2422 21.8548 37.5313 20.3132L38.7676 13.7191V9.95219L30.5436 8.58157Z" fill="white"/>
</svg>
