<svg width="292" height="139" viewBox="0 0 292 139" fill="none" xmlns="http://www.w3.org/2000/svg">
<path d="M9.72996 59.97C7.85996 59.97 6.06996 60.36 4.45996 61.06C8.86996 41.5 22.52 27.6 23.03 27.09C18.01 36.53 16.23 49.02 16.12 61.6C14.22 60.56 12.04 59.97 9.72996 59.97" fill="white"/>
<path d="M23.04 114.88C12.78 105.02 7.19998 95.07 4.72998 85.59C6.27998 86.23 7.96998 86.57 9.73998 86.57C12.6 86.57 15.27 85.66 17.44 84.12C19.45 101.39 23.04 114.87 23.04 114.87" fill="white"/>
<path d="M19.47 73.27C19.47 78.65 15.11 83 9.74 83C4.37 83 0 78.65 0 73.27C0 67.89 4.36 63.54 9.73 63.54C15.1 63.54 19.46 67.9 19.46 73.27" fill="white"/>
<path d="M80.86 9.73002C80.86 7.86002 80.47 6.07002 79.77 4.46002C99.33 8.86002 113.23 22.51 113.74 23.02C104.3 18 91.81 16.22 79.23 16.11C80.26 14.21 80.86 12.03 80.86 9.72002" fill="white"/>
<path d="M25.96 23.04C35.82 12.78 45.77 7.19998 55.25 4.72998C54.61 6.27998 54.27 7.96998 54.27 9.73998C54.27 12.6 55.18 15.27 56.72 17.44C39.45 19.45 25.97 23.04 25.97 23.04" fill="white"/>
<path d="M67.5601 19.47C62.1801 19.47 57.8301 15.11 57.8301 9.74C57.8301 4.37 62.1901 0 67.5601 0C72.9301 0 77.2901 4.36 77.2901 9.73C77.2901 15.1 72.9301 19.46 67.5601 19.46" fill="white"/>
<path d="M127.34 78.5C129.21 78.5 131 78.11 132.61 77.41C128.21 96.97 114.56 110.87 114.05 111.38C119.07 101.94 120.85 89.45 120.96 76.86C122.86 77.9 125.04 78.49 127.35 78.49" fill="white"/>
<path d="M114.03 23.59C124.29 33.45 129.87 43.4 132.34 52.88C130.79 52.24 129.1 51.9 127.33 51.9C124.47 51.9 121.8 52.81 119.63 54.35C117.62 37.08 114.03 23.6 114.03 23.6" fill="white"/>
<path d="M117.6 65.2C117.6 59.82 121.96 55.47 127.33 55.47C132.7 55.47 137.06 59.83 137.06 65.2C137.06 70.57 132.7 74.93 127.33 74.93C121.96 74.93 117.6 70.57 117.6 65.2Z" fill="white"/>
<path d="M56.21 128.74C56.21 130.61 56.6 132.4 57.3 134.01C37.74 129.61 23.84 115.96 23.33 115.45C32.77 120.47 45.26 122.25 57.84 122.36C56.81 124.26 56.21 126.44 56.21 128.75" fill="white"/>
<path d="M111.11 115.43C101.25 125.69 91.3 131.27 81.82 133.74C82.46 132.19 82.8 130.5 82.8 128.73C82.8 125.87 81.89 123.2 80.35 121.03C97.62 119.02 111.1 115.43 111.1 115.43" fill="white"/>
<path d="M69.51 119C74.89 119 79.24 123.36 79.24 128.73C79.24 134.1 74.88 138.46 69.51 138.46C64.14 138.46 59.78 134.1 59.78 128.73C59.78 123.36 64.14 119 69.51 119" fill="white"/>
<path d="M40.99 98.36V62.95L71.02 40.71L101.05 62.95V98.35L100.33 98.06C96.68 96.6 92.48 95.44 87.84 94.61C82.53 93.66 76.88 93.18 71.03 93.18C70.48 93.18 69.92 93.18 69.38 93.19C58.99 93.35 49.16 95.08 41.72 98.06L41 98.35L40.99 98.36ZM42.04 63.48V96.81C49.5 93.96 59.16 92.31 69.35 92.15C69.9 92.14 70.46 92.14 71.02 92.14C76.93 92.14 82.65 92.63 88.02 93.59C92.43 94.38 96.45 95.46 100 96.81V63.48L71.02 42.02L42.04 63.48V63.48Z" fill="white"/>
<path d="M71.8 92.9L62.22 93.19L54.05 94.31L49.75 94.92C49.75 94.92 49.82 94.01 49.75 89.67C49.68 85.33 53.39 82.32 53.79 81.13C54.11 80.18 53.92 77.47 53.83 76.38C53.92 76.54 54.02 76.71 54.12 76.87C54.5 77.48 54.91 78.07 55.38 78.61C55.86 79.17 56.38 79.68 56.98 80.12C57.5 80.5 58.07 80.83 58.66 81.07C59.36 81.35 60.09 81.48 60.81 81.42C61.33 81.38 61.85 81.24 62.34 80.99C62.99 80.66 63.58 80.21 64.09 79.7C64.25 79.54 64.42 79.36 64.57 79.19C65.04 78.65 65.43 78.06 65.77 77.44C66.03 76.98 66.25 76.51 66.45 76.02C66.47 77.25 66.55 78.77 66.82 79.42C67.3 80.58 71.21 83.33 71.44 87.67C71.67 92 71.8 92.91 71.8 92.91" fill="white"/>
<path d="M60.81 79.61C61.33 79.57 61.85 79.43 62.34 79.18C62.99 78.85 63.57 78.4 64.09 77.89C64.26 77.73 64.42 77.56 64.57 77.38C65.03 76.84 65.43 76.25 65.77 75.62C66.11 75.01 66.39 74.38 66.63 73.73C66.86 73.12 67.05 72.51 67.22 71.88C67.36 71.34 67.49 70.8 67.6 70.26C67.68 69.86 67.76 69.46 67.84 69.05C67.87 68.89 67.89 68.56 68.01 68.44C68.11 68.34 68.15 68.53 68.17 68.61V68.64C68.74 70.63 70.21 72.53 70.21 72.53C70.56 71.28 70.83 69.99 70.92 68.69C70.99 67.69 70.96 66.67 70.75 65.69C70.58 64.9 70.3 64.13 69.87 63.43C69.5 62.82 69.02 62.27 68.47 61.81C67.94 61.37 67.35 61.02 66.73 60.73C66.12 60.45 65.48 60.24 64.82 60.09C64.2 59.94 63.56 59.84 62.93 59.78C61.63 59.66 60.31 59.68 59.01 59.8C58.43 59.86 57.86 59.93 57.29 60.02C56.41 60.16 55.52 60.35 54.67 60.63C53.96 60.86 53.27 61.14 52.61 61.48C51.93 61.84 51.28 62.27 50.72 62.79C50.13 63.33 49.64 63.96 49.27 64.67C48.86 65.46 48.63 66.33 48.55 67.2C48.45 68.31 48.59 69.42 48.85 70.5C49.17 71.83 49.69 73.11 50.29 74.33C50.29 74.33 51.39 72.19 51.58 70.13C51.58 70.05 51.59 69.83 51.71 69.9C51.77 69.94 51.8 70.05 51.83 70.1C51.89 70.22 51.94 70.35 51.99 70.48C52.15 70.88 52.3 71.27 52.46 71.67C52.68 72.2 52.91 72.73 53.16 73.25C53.45 73.85 53.77 74.45 54.12 75.02C54.5 75.63 54.91 76.22 55.38 76.76C55.86 77.32 56.39 77.83 56.98 78.27C57.5 78.66 58.07 78.98 58.67 79.22C59.37 79.5 60.1 79.63 60.82 79.57" fill="white"/>
<path d="M89.52 94.08C84.35 93.21 78.62 92.73 72.61 92.73C72.05 92.73 71.5 92.73 70.95 92.74C71.11 91.05 71.55 87.79 72.72 85.69C73.7 83.94 74.12 81.88 74.31 80.5C75.01 81.75 76.01 82.83 77.22 83.6C79.48 85.04 82.39 85.38 84.95 84.58C86.51 84.09 87.97 83.18 88.95 81.87C88.76 82.8 87.95 86.8 88.15 88.14C88.34 89.38 89.56 90.99 89.52 94.07" fill="white"/>
<path d="M94.3199 69.81C92.0799 69.5 89.7599 69.69 87.5999 70.35C87.6599 70.33 87.2099 69.36 87.1799 69.29C86.2099 67.57 83.9099 66.76 82.0299 67.12C81.6699 67.19 81.3199 67.3 80.9899 67.45C80.7499 67.56 80.5199 67.71 80.3199 67.88C78.9999 66.04 77.2799 64.48 75.3099 63.37C75.4299 65.66 75.5499 67.95 75.6699 70.24C73.9299 71.21 73.1699 73.39 73.2799 75.37C73.4399 78.05 74.9799 80.59 77.2499 82.02C79.5099 83.46 82.4199 83.8 84.9799 83C86.6499 82.48 88.1899 81.47 89.1699 80.02C90.1499 78.57 90.4999 76.67 89.8999 75.03C91.3799 73.28 92.8599 71.54 94.3399 69.79" fill="white"/>
<path d="M108.66 47.04C109.13 45.75 108.81 44.46 107.97 43.8C104.9 41.37 101.9 44.49 101.9 44.49C101.9 44.49 103.21 40.36 99.6 38.83C98.61 38.41 97.33 38.75 96.42 39.77C95.59 40.71 95.01 42.2 95.99 44.39C97.95 48.79 97.05 52.65 97.05 52.65C97.05 52.65 100.01 50.01 104.81 49.63C107.21 49.44 108.24 48.21 108.66 47.04" fill="white"/>
<path d="M34.07 47.04C33.6 45.75 33.92 44.46 34.76 43.8C37.83 41.37 40.83 44.49 40.83 44.49C40.83 44.49 39.52 40.36 43.13 38.83C44.12 38.41 45.4 38.75 46.31 39.77C47.14 40.71 47.72 42.2 46.74 44.39C44.78 48.79 45.68 52.65 45.68 52.65C45.68 52.65 42.72 50.01 37.92 49.63C35.52 49.44 34.49 48.21 34.07 47.04" fill="white"/>
<path d="M151.191 28.8027H158.972V32.3976H155.857V35.8039H158.773V39.2213H155.857V43.1713H159.283V46.7662H151.191V28.8027Z" fill="white"/>
<path d="M175.034 28.8027V46.7662H170.955V34.6389L169.326 46.7662H166.432L164.714 34.9163V46.7662H160.635V28.8027H166.676C166.854 29.8827 167.042 31.1549 167.242 32.6195L167.885 37.1908L168.949 28.8027H175.034Z" fill="white"/>
<path d="M184.966 28.8027L187.638 46.7662H182.86L182.628 43.5374H180.954L180.677 46.7662H175.844L178.216 28.8027H184.966ZM182.494 40.353C182.258 38.3189 182.022 35.8076 181.785 32.8192C181.312 36.2514 181.017 38.7627 180.898 40.353H182.494Z" fill="white"/>
<path d="M199.044 28.8027V40.808C199.044 42.169 199 43.1269 198.911 43.6817C198.823 44.229 198.56 44.7949 198.124 45.3793C197.688 45.9562 197.112 46.3963 196.395 46.6996C195.686 46.9955 194.847 47.1434 193.879 47.1434C192.807 47.1434 191.861 46.9659 191.041 46.6109C190.221 46.2558 189.607 45.7935 189.201 45.2239C188.794 44.6544 188.554 44.0552 188.48 43.4265C188.406 42.7903 188.369 41.4589 188.369 39.4321V28.8027H193.036V42.2725C193.036 43.0566 193.077 43.5596 193.158 43.7815C193.247 43.996 193.421 44.1033 193.679 44.1033C193.975 44.1033 194.163 43.9849 194.244 43.7482C194.333 43.5041 194.378 42.9346 194.378 42.0395V28.8027H199.044ZM197.492 25.23L193.845 28.2368H191.595L193.546 25.23H197.492Z" fill="white"/>
<path d="M210.739 34.2395H206.405V32.908C206.405 32.2867 206.349 31.8909 206.238 31.7208C206.128 31.5507 205.943 31.4656 205.684 31.4656C205.403 31.4656 205.189 31.5803 205.041 31.8096C204.901 32.0389 204.831 32.3865 204.831 32.8525C204.831 33.4517 204.912 33.9029 205.074 34.2062C205.23 34.5095 205.669 34.8756 206.394 35.3046C208.47 36.5399 209.778 37.5533 210.318 38.3448C210.857 39.1362 211.127 40.4122 211.127 42.1727C211.127 43.4524 210.975 44.3955 210.672 45.002C210.377 45.6086 209.8 46.119 208.943 46.5332C208.086 46.94 207.088 47.1434 205.95 47.1434C204.701 47.1434 203.633 46.9067 202.747 46.4333C201.867 45.9599 201.291 45.3571 201.017 44.6248C200.744 43.8925 200.607 42.8532 200.607 41.507V40.3308H204.941V42.5166C204.941 43.1898 205.001 43.6225 205.119 43.8148C205.244 44.0071 205.462 44.1033 205.773 44.1033C206.083 44.1033 206.312 43.9812 206.46 43.7371C206.615 43.493 206.693 43.1306 206.693 42.6498C206.693 41.592 206.549 40.9004 206.261 40.5749C205.965 40.2495 205.237 39.7058 204.077 38.9439C202.917 38.1746 202.148 37.6162 201.771 37.2685C201.394 36.9209 201.08 36.4401 200.829 35.8261C200.585 35.2122 200.463 34.4281 200.463 33.4739C200.463 32.098 200.637 31.0921 200.984 30.4559C201.339 29.8198 201.908 29.3242 202.691 28.9691C203.475 28.6067 204.42 28.4255 205.529 28.4255C206.741 28.4255 207.772 28.6215 208.622 29.0135C209.479 29.4056 210.044 29.9012 210.318 30.5003C210.598 31.0921 210.739 32.1017 210.739 33.5294V34.2395Z" fill="white"/>
<path d="M163.744 52.7699L167.752 79.7152H160.585L160.236 74.872H157.725L157.31 79.7152H150.06L153.618 52.7699H163.744ZM160.036 70.0954C159.682 67.0442 159.327 63.2773 158.972 58.7947C158.263 63.943 157.819 67.7099 157.642 70.0954H160.036Z" fill="white"/>
<path d="M185.293 64.52H178.293V59.8266C178.293 58.4619 178.216 57.6131 178.061 57.2802C177.916 56.9363 177.589 56.7643 177.08 56.7643C176.503 56.7643 176.137 56.9695 175.982 57.3801C175.827 57.7906 175.749 58.6782 175.749 60.043V72.5586C175.749 73.8679 175.827 74.7222 175.982 75.1217C176.137 75.5211 176.486 75.7208 177.03 75.7208C177.551 75.7208 177.889 75.5211 178.044 75.1217C178.21 74.7222 178.293 73.7847 178.293 72.309V68.9304H185.293V69.9789C185.293 72.7639 185.094 74.7389 184.695 75.9039C184.307 77.0689 183.437 78.0897 182.084 78.9662C180.743 79.8428 179.086 80.281 177.113 80.281C175.062 80.281 173.372 79.9093 172.041 79.1659C170.711 78.4225 169.83 77.3962 169.398 76.087C168.965 74.7666 168.749 72.7861 168.749 70.1454V62.2732C168.749 60.3315 168.816 58.878 168.949 57.9127C169.082 56.9363 169.475 55.9987 170.129 55.1C170.794 54.2012 171.709 53.4967 172.873 52.9863C174.048 52.4648 175.395 52.2041 176.913 52.2041C178.975 52.2041 180.677 52.6035 182.018 53.4024C183.359 54.2012 184.24 55.1998 184.662 56.3981C185.083 57.5853 185.293 59.4383 185.293 61.9569V64.52Z" fill="white"/>
<path d="M204.149 64.52H197.149V59.8266C197.149 58.4619 197.071 57.6131 196.916 57.2802C196.772 56.9363 196.445 56.7643 195.935 56.7643C195.359 56.7643 194.993 56.9695 194.838 57.3801C194.682 57.7906 194.605 58.6782 194.605 60.043V72.5586C194.605 73.8679 194.682 74.7222 194.838 75.1217C194.993 75.5211 195.342 75.7208 195.885 75.7208C196.406 75.7208 196.744 75.5211 196.899 75.1217C197.066 74.7222 197.149 73.7847 197.149 72.309V68.9304H204.149V69.9789C204.149 72.7639 203.949 74.7389 203.55 75.9039C203.162 77.0689 202.292 78.0897 200.94 78.9662C199.599 79.8428 197.941 80.281 195.968 80.281C193.917 80.281 192.227 79.9093 190.897 79.1659C189.567 78.4225 188.685 77.3962 188.253 76.087C187.821 74.7666 187.605 72.7861 187.605 70.1454V62.2732C187.605 60.3315 187.671 58.878 187.804 57.9127C187.937 56.9363 188.331 55.9987 188.985 55.1C189.65 54.2012 190.564 53.4967 191.728 52.9863C192.903 52.4648 194.25 52.2041 195.769 52.2041C197.83 52.2041 199.532 52.6035 200.873 53.4024C202.215 54.2012 203.096 55.1998 203.517 56.3981C203.938 57.5853 204.149 59.4383 204.149 61.9569V64.52Z" fill="white"/>
<path d="M213.66 52.7699V79.7152H206.66V52.7699H213.66Z" fill="white"/>
<path d="M232.465 68.5476C232.465 71.2549 232.399 73.1744 232.266 74.3061C232.144 75.4268 231.745 76.4531 231.069 77.3851C230.403 78.3171 229.5 79.0328 228.358 79.5321C227.217 80.0314 225.886 80.281 224.368 80.281C222.927 80.281 221.63 80.048 220.477 79.582C219.335 79.1049 218.415 78.3948 217.717 77.4517C217.018 76.5086 216.603 75.4823 216.47 74.3727C216.337 73.2632 216.27 71.3215 216.27 68.5476V63.9375C216.27 61.2302 216.331 59.3162 216.453 58.1956C216.586 57.0639 216.985 56.032 217.65 55.1C218.326 54.1679 219.235 53.4523 220.377 52.953C221.519 52.4537 222.849 52.2041 224.368 52.2041C225.809 52.2041 227.1 52.4426 228.242 52.9197C229.395 53.3857 230.32 54.0903 231.019 55.0334C231.717 55.9765 232.133 57.0028 232.266 58.1124C232.399 59.2219 232.465 61.1636 232.465 63.9375V68.5476ZM225.465 59.6935C225.465 58.4397 225.393 57.6408 225.249 57.2969C225.116 56.9418 224.833 56.7643 224.401 56.7643C224.035 56.7643 223.753 56.9085 223.553 57.197C223.365 57.4744 223.27 58.3065 223.27 59.6935V72.2757C223.27 73.8401 223.331 74.8054 223.453 75.1716C223.586 75.5377 223.886 75.7208 224.351 75.7208C224.828 75.7208 225.133 75.51 225.266 75.0884C225.399 74.6667 225.465 73.6626 225.465 72.076V59.6935ZM230.038 47.4108L224.567 51.9211H221.192L224.118 47.4108H230.038Z" fill="white"/>
<path d="M250.722 52.7699V79.7152H244.587L240.945 67.4658V79.7152H235.092V52.7699H240.945L244.869 64.9028V52.7699H250.722Z" fill="white"/>
<path d="M166.488 93.874H159.987V91.8768C159.987 90.9448 159.903 90.3512 159.737 90.096C159.571 89.8408 159.294 89.7132 158.906 89.7132C158.485 89.7132 158.163 89.8852 157.941 90.2292C157.731 90.5731 157.626 91.0946 157.626 91.7936C157.626 92.6924 157.747 93.3692 157.991 93.8241C158.224 94.279 158.884 94.8282 159.97 95.4718C163.085 97.3247 165.047 98.8448 165.856 100.032C166.665 101.219 167.07 103.133 167.07 105.774C167.07 107.693 166.843 109.108 166.388 110.018C165.945 110.928 165.08 111.693 163.794 112.315C162.508 112.925 161.012 113.23 159.305 113.23C157.432 113.23 155.83 112.875 154.5 112.165C153.18 111.455 152.316 110.55 151.906 109.452C151.496 108.354 151.29 106.795 151.29 104.775V103.011H157.792V106.29C157.792 107.299 157.88 107.949 158.058 108.237C158.246 108.526 158.573 108.67 159.039 108.67C159.504 108.67 159.848 108.487 160.07 108.121C160.303 107.754 160.419 107.211 160.419 106.49C160.419 104.903 160.203 103.865 159.77 103.377C159.327 102.889 158.235 102.074 156.495 100.931C154.755 99.7768 153.602 98.9391 153.036 98.4176C152.471 97.8961 152 97.1749 151.623 96.254C151.257 95.3331 151.074 94.157 151.074 92.7256C151.074 90.6619 151.335 89.1529 151.856 88.1987C152.388 87.2445 153.241 86.5011 154.416 85.9685C155.591 85.4249 157.01 85.153 158.673 85.153C160.491 85.153 162.037 85.447 163.312 86.0351C164.598 86.6232 165.446 87.3666 165.856 88.2653C166.277 89.1529 166.488 90.6674 166.488 92.8089V93.874Z" fill="white"/>
<path d="M185.277 101.497C185.277 104.204 185.21 106.123 185.077 107.255C184.955 108.376 184.556 109.402 183.88 110.334C183.215 111.266 182.312 111.982 181.17 112.481C180.028 112.98 178.698 113.23 177.179 113.23C175.738 113.23 174.441 112.997 173.288 112.531C172.147 112.054 171.227 111.344 170.528 110.401C169.83 109.458 169.414 108.431 169.281 107.322C169.148 106.212 169.082 104.27 169.082 101.497V96.8864C169.082 94.1791 169.143 92.2652 169.265 91.1445C169.398 90.0128 169.797 88.9809 170.462 88.0489C171.138 87.1169 172.047 86.4013 173.189 85.902C174.33 85.4027 175.661 85.153 177.179 85.153C178.62 85.153 179.912 85.3916 181.053 85.8687C182.206 86.3347 183.132 87.0392 183.83 87.9824C184.529 88.9255 184.944 89.9518 185.077 91.0613C185.21 92.1709 185.277 94.1126 185.277 96.8864V101.497ZM178.277 92.6424C178.277 91.3887 178.205 90.5898 178.061 90.2458C177.928 89.8908 177.645 89.7132 177.213 89.7132C176.847 89.7132 176.564 89.8575 176.365 90.146C176.176 90.4233 176.082 91.2555 176.082 92.6424V105.225C176.082 106.789 176.143 107.754 176.265 108.121C176.398 108.487 176.697 108.67 177.163 108.67C177.639 108.67 177.944 108.459 178.077 108.037C178.21 107.616 178.277 106.612 178.277 105.025V92.6424Z" fill="white"/>
<path d="M194.904 85.7189V107.272H199.161V112.664H187.904V85.7189H194.904Z" fill="white"/>
<path d="M207.873 85.7189V112.664H200.873V85.7189H207.873Z" fill="white"/>
<path d="M210.683 85.7189H215.921C219.302 85.7189 221.585 85.8742 222.771 86.1849C223.969 86.4956 224.878 87.006 225.498 87.7161C226.119 88.4262 226.507 89.2195 226.662 90.096C226.817 90.9615 226.895 92.6702 226.895 95.2221V104.659C226.895 107.078 226.779 108.698 226.546 109.519C226.324 110.329 225.931 110.967 225.365 111.433C224.8 111.887 224.102 112.209 223.27 112.398C222.439 112.575 221.186 112.664 219.513 112.664H210.683V85.7189ZM217.684 90.329V108.054C218.692 108.054 219.313 107.854 219.546 107.455C219.779 107.044 219.895 105.94 219.895 104.143V93.6743C219.895 92.4538 219.856 91.6716 219.779 91.3276C219.701 90.9837 219.524 90.734 219.246 90.5787C218.969 90.4123 218.448 90.329 217.684 90.329Z" fill="white"/>
<path d="M241.594 85.7189L245.601 112.664H238.434L238.085 107.821H235.575L235.159 112.664H227.909L231.468 85.7189H241.594ZM237.886 103.044C237.531 99.9931 237.176 96.2262 236.822 91.7437C236.112 96.892 235.669 100.659 235.491 103.044H237.886Z" fill="white"/>
<path d="M246.798 85.7189H251.753C255.056 85.7189 257.29 85.8465 258.454 86.1017C259.629 86.3569 260.582 87.0115 261.314 88.0656C262.056 89.1085 262.428 90.7784 262.428 93.0751C262.428 95.1722 262.167 96.5813 261.646 97.3025C261.125 98.0237 260.1 98.4564 258.57 98.6007C259.956 98.9446 260.887 99.4051 261.364 99.982C261.84 100.559 262.134 101.092 262.245 101.58C262.367 102.057 262.428 103.383 262.428 105.558V112.664H255.926V103.71C255.926 102.268 255.81 101.375 255.577 101.031C255.356 100.687 254.763 100.515 253.798 100.515V112.664H246.798V85.7189ZM253.798 90.329V96.3206C254.585 96.3206 255.134 96.2152 255.444 96.0043C255.766 95.7824 255.926 95.0779 255.926 93.8907V92.4094C255.926 91.5551 255.771 90.9948 255.461 90.7285C255.162 90.4622 254.607 90.329 253.798 90.329Z" fill="white"/>
<path d="M272.155 85.7189V112.664H265.155V85.7189H272.155Z" fill="white"/>
<path d="M287.053 85.7189L291.06 112.664H283.894L283.544 107.821H281.034L280.618 112.664H273.369L276.927 85.7189H287.053ZM283.345 103.044C282.99 99.9931 282.636 96.2262 282.281 91.7437C281.571 96.892 281.128 100.659 280.951 103.044H283.345Z" fill="white"/>
</svg>
